<?xml version="1.0" standalone="no"?>
<!DOCTYPE svg PUBLIC "-//W3C//DTD SVG 20010904//EN"
 "http://www.w3.org/TR/2001/REC-SVG-20010904/DTD/svg10.dtd">
<svg version="1.0" xmlns="http://www.w3.org/2000/svg"
 width="840.000000pt" height="765.000000pt" viewBox="0 0 840.000000 765.000000"
 preserveAspectRatio="xMidYMid meet">

<g transform="translate(0.000000,765.000000) scale(0.100000,-0.100000)"
fill="#000000" stroke="none">
<path d="M5377 7155 c3 -9 -2 -18 -12 -21 -13 -5 -14 -9 -3 -15 17 -12 31 -11
23 0 -3 5 -1 12 5 16 14 9 12 22 -4 28 -10 4 -13 1 -9 -8z"/>
<path d="M5410 7154 c0 -8 5 -12 10 -9 6 3 10 10 10 16 0 5 -4 9 -10 9 -5 0
-10 -7 -10 -16z"/>
<path d="M5444 7126 c-8 -8 -1 -20 24 -43 19 -18 38 -33 42 -33 4 0 17 -9 30
-20 21 -19 22 -20 4 -20 -11 0 -25 5 -31 11 -6 6 -29 12 -52 12 -23 1 -43 8
-46 15 -4 11 -8 10 -21 -3 -19 -19 -22 -17 41 -39 73 -27 115 -47 115 -56 0
-5 -17 -4 -37 2 -29 8 -39 7 -47 -4 -7 -8 -27 -14 -48 -13 -63 3 -47 -28 21
-41 13 -3 34 -10 45 -16 12 -7 30 -12 41 -12 11 -1 21 -9 23 -18 3 -14 -1 -16
-15 -11 -16 6 -16 5 -4 -11 13 -16 12 -17 -15 -10 -16 4 -39 14 -52 22 -12 8
-25 12 -28 9 -3 -3 3 -8 14 -11 11 -4 23 -13 25 -20 6 -15 -27 -16 -83 -3 -14
3 -48 9 -77 11 -74 8 -86 14 -78 43 5 22 4 23 -15 13 -11 -6 -20 -13 -20 -16
0 -3 6 -2 13 2 8 5 8 2 -2 -9 -17 -21 -20 -21 -17 0 3 17 -23 44 -54 56 -8 3
10 5 40 3 53 -2 80 9 80 32 0 5 -27 9 -61 8 -37 -1 -63 3 -67 10 -4 7 -23 17
-42 22 l-35 10 30 1 c43 2 11 21 -34 21 -33 0 -34 -1 -15 -15 11 -8 14 -15 7
-15 -7 0 -13 -7 -13 -15 0 -8 -4 -15 -9 -15 -5 0 -4 -13 2 -30 8 -20 15 -26
22 -20 7 6 14 7 17 4 3 -3 19 -6 34 -7 21 -2 30 -8 32 -23 2 -11 -3 -21 -10
-22 -83 -6 -93 -9 -92 -25 2 -19 -4 -21 -26 -7 -10 6 -11 10 -2 10 6 0 12 5
12 11 0 7 -10 9 -27 5 -15 -4 -29 -3 -33 3 -4 8 -22 8 -55 2 -47 -9 -75 -6
-75 8 0 3 26 7 58 9 31 2 62 8 67 14 7 7 3 8 -12 3 -13 -3 -23 -4 -23 0 0 3
10 10 23 15 19 8 18 9 -10 6 -18 -2 -36 0 -39 5 -3 6 -19 7 -36 4 -24 -6 -29
-4 -26 11 2 9 -3 19 -10 21 -7 3 -10 -1 -7 -9 3 -7 -6 -18 -20 -25 -21 -9 -27
-8 -35 5 -8 14 -10 11 -8 -13 2 -18 9 -30 18 -31 33 -2 40 -4 40 -13 0 -5 -9
-13 -20 -16 -31 -10 -24 -25 13 -26 29 0 30 -1 9 -9 -12 -5 -29 -7 -37 -4 -9
4 -18 -2 -24 -17 -8 -20 -10 -21 -10 -5 -1 17 -6 18 -52 12 -29 -4 -69 -16
-90 -27 -25 -12 -39 -15 -39 -8 0 8 -5 7 -16 -2 -14 -12 -13 -14 12 -21 16 -4
44 -6 64 -4 19 2 27 1 17 -1 -9 -2 -22 -13 -27 -24 -9 -16 -7 -19 9 -19 11 0
22 6 24 13 4 10 6 10 6 0 1 -18 21 -16 21 1 0 13 27 31 43 28 4 -1 7 2 7 8 0
6 11 10 25 10 19 0 23 -4 18 -17 -5 -12 -3 -14 8 -8 11 6 12 5 2 -5 -9 -9 -16
-10 -25 -3 -9 8 -17 7 -27 -4 -12 -13 -8 -14 30 -13 63 3 103 1 98 -4 -8 -8
-131 -27 -204 -32 -38 -3 -83 -9 -100 -14 -16 -5 -57 -12 -90 -15 -32 -4 -63
-9 -67 -11 -4 -3 -13 -2 -19 2 -18 11 9 22 71 30 44 6 50 9 30 14 -14 4 -29 4
-35 1 -15 -8 -45 -9 -50 0 -3 4 -14 5 -24 2 -10 -3 -22 0 -25 6 -5 7 1 11 14
11 15 0 20 5 17 14 -3 8 -1 16 5 18 21 7 -2 27 -25 22 -12 -3 -35 -7 -52 -9
-16 -2 -48 -6 -70 -10 l-40 -7 29 17 c16 8 36 13 43 11 7 -3 13 -2 13 3 0 5
16 12 36 16 25 4 33 10 26 17 -7 7 -16 6 -30 -1 -10 -6 -22 -7 -26 -4 -3 3 -6
2 -6 -3 0 -5 -26 -9 -58 -8 -31 0 -69 -6 -84 -13 -15 -7 -35 -13 -45 -12 -16
0 -15 2 5 16 23 16 33 61 10 46 -19 -12 -61 -10 -76 4 -15 15 -46 18 -38 4 6
-9 -15 -21 -36 -21 -7 0 -7 4 0 13 7 8 7 18 2 27 -15 24 -13 27 38 40 51 14
87 37 40 26 -33 -8 -37 8 -7 24 36 20 12 23 -34 5 -29 -11 -44 -22 -43 -33 1
-13 -8 -17 -41 -17 -48 0 -55 -5 -55 -38 0 -14 -11 -37 -24 -52 -13 -16 -24
-33 -24 -40 0 -15 -45 -39 -58 -31 -13 8 4 74 23 96 9 10 11 21 5 30 -13 21
-42 21 -47 -1 -3 -10 -9 -19 -14 -19 -4 0 -13 -18 -19 -40 -7 -26 -15 -38 -22
-34 -8 5 -9 1 -5 -10 6 -14 3 -16 -13 -11 -17 6 -20 2 -20 -30 0 -23 -4 -34
-11 -30 -6 4 -20 -1 -32 -11 -32 -28 -64 -44 -86 -44 -10 0 -24 -7 -31 -15 -7
-8 -18 -15 -24 -15 -13 0 -42 41 -38 53 1 5 -2 6 -8 2 -5 -3 -10 -24 -10 -46
0 -29 -4 -39 -16 -39 -8 0 -22 -7 -31 -15 -9 -10 -24 -13 -37 -10 -14 4 -17 3
-8 -3 10 -7 -6 -19 -60 -47 -90 -46 -150 -89 -140 -100 4 -5 -1 -5 -11 -2 -12
5 -16 3 -11 -5 5 -8 2 -9 -9 -5 -9 3 -19 2 -22 -3 -4 -6 -1 -10 5 -10 6 0 0
-10 -14 -22 -37 -35 -79 -63 -87 -61 -4 1 -9 -4 -12 -11 -4 -10 0 -12 14 -9
10 3 19 9 19 14 0 5 7 9 15 9 8 0 15 5 15 10 0 6 7 10 15 10 8 0 15 4 15 10 0
5 11 12 25 16 13 3 29 12 36 20 12 15 39 19 39 6 0 -4 -8 -12 -19 -17 -115
-61 -141 -76 -147 -87 -13 -20 -13 -38 -2 -38 19 0 118 61 113 70 -3 5 0 12 6
16 8 4 9 3 5 -4 -4 -7 -2 -12 3 -12 6 0 11 5 11 11 0 5 3 8 8 6 4 -3 34 8 67
23 33 15 62 26 65 23 3 -2 -3 -9 -12 -14 -10 -5 -15 -15 -12 -22 3 -8 -11 -20
-33 -31 -50 -23 -173 -107 -173 -118 0 -4 -5 -8 -11 -8 -11 0 -58 -35 -126
-94 -12 -10 -20 -22 -18 -26 2 -4 -2 -7 -10 -7 -20 0 -83 -55 -84 -73 -1 -9
-19 -36 -42 -60 -23 -25 -53 -63 -68 -85 -14 -22 -34 -49 -44 -59 -9 -11 -21
-34 -26 -50 -5 -17 -12 -40 -17 -51 -7 -20 -7 -20 14 -1 12 11 22 25 22 31 0
7 8 19 17 26 15 12 16 12 8 -1 -5 -8 10 2 33 23 48 42 67 47 57 15 -6 -17 -4
-20 9 -15 16 6 6 -17 -39 -93 -13 -21 -35 -15 -35 10 0 28 -17 33 -23 7 -5
-18 -10 -163 -8 -203 1 -6 15 -17 31 -24 17 -7 30 -18 30 -25 0 -7 11 -24 25
-37 20 -20 22 -27 11 -31 -8 -3 -16 -2 -18 2 -2 5 -14 11 -28 15 -23 6 -22 4
11 -26 48 -44 78 -90 61 -96 -24 -8 -13 -43 18 -55 17 -7 30 -19 30 -28 0 -10
3 -25 7 -35 4 -12 3 -15 -5 -10 -9 5 -12 -5 -12 -34 0 -30 3 -39 13 -34 6 4 5
-1 -4 -12 -9 -10 -20 -41 -24 -69 -4 -27 -12 -56 -18 -64 -14 -16 -36 -141
-26 -141 4 0 4 -13 -1 -30 -5 -16 -6 -30 -3 -30 3 0 1 -6 -5 -12 -6 -7 -12
-35 -15 -63 -3 -27 -15 -81 -27 -120 -12 -38 -21 -78 -21 -87 0 -10 -5 -18
-11 -18 -6 0 -7 15 -3 41 4 23 8 56 9 74 2 17 6 36 10 43 4 8 2 10 -7 6 -15
-6 -37 -83 -61 -224 -32 -179 -108 -531 -156 -720 -10 -41 -29 -120 -41 -175
-18 -79 -75 -311 -163 -660 -1 -5 -8 -37 -15 -70 -7 -33 -24 -99 -37 -146 -14
-47 -27 -97 -29 -110 -3 -13 -12 -60 -21 -104 -10 -44 -18 -87 -19 -95 -1 -8
-8 -28 -14 -45 -25 -59 -52 -152 -57 -190 -1 -12 -10 -48 -35 -146 -25 -98
-24 -143 1 -64 11 32 17 61 15 63 -2 3 5 22 15 43 11 21 20 49 20 61 0 13 7
36 15 52 15 28 23 56 31 109 2 16 11 44 20 63 9 19 17 46 18 62 1 15 5 33 10
40 4 7 3 19 -4 27 -9 11 -9 15 -1 15 6 0 11 6 11 14 0 8 6 16 14 19 10 4 14 0
13 -14 -1 -10 -6 -19 -12 -19 -5 0 -5 -4 2 -8 15 -9 6 -82 -9 -82 -6 0 -8 -6
-5 -14 3 -7 0 -22 -6 -32 -7 -11 -12 -31 -11 -47 0 -15 -2 -27 -5 -27 -3 0 -7
-10 -8 -22 -1 -13 -5 -38 -9 -57 -5 -24 -3 -32 5 -27 6 4 11 2 11 -5 0 -6 -8
-9 -19 -6 -22 6 -37 -19 -22 -37 6 -7 6 -17 1 -26 -12 -19 -13 -53 -1 -46 5 4
12 0 14 -6 4 -8 6 -7 6 4 1 9 -3 19 -9 23 -6 3 -5 15 2 31 8 18 14 21 20 12 5
-9 8 -6 8 10 0 13 5 33 11 44 7 12 7 18 1 14 -6 -4 -9 6 -8 26 4 48 5 50 16
43 12 -7 30 58 18 66 -6 3 -3 9 6 12 11 4 16 19 16 47 0 23 4 39 8 36 5 -3 15
20 22 51 6 31 18 72 26 92 l14 36 -3 -40 c-5 -51 -57 -277 -67 -290 -7 -9 -67
-260 -76 -315 -2 -14 -5 -34 -8 -45 -22 -95 -35 -145 -41 -154 -3 -6 1 -11 9
-11 9 0 16 8 16 17 0 9 4 30 10 47 5 17 12 43 15 58 4 19 10 26 20 22 10 -4
15 0 15 10 0 10 7 30 15 46 8 16 16 40 17 54 1 13 6 22 11 19 5 -3 7 -18 5
-34 -7 -43 8 -22 25 36 8 28 20 49 26 48 6 -2 11 4 11 12 0 9 6 12 15 9 8 -4
15 -13 15 -21 0 -8 -4 -11 -10 -8 -5 3 -10 -1 -10 -9 0 -10 -6 -13 -17 -9 -15
5 -15 3 2 -11 11 -10 13 -14 5 -10 -8 4 -6 -2 5 -13 17 -16 22 -17 33 -6 7 7
12 21 10 31 -2 9 2 22 8 27 7 6 14 28 17 50 6 48 36 121 37 90 1 -20 1 -20 15
-1 8 10 12 22 10 26 -3 4 3 14 12 21 15 12 16 12 10 -3 -3 -10 -1 -20 5 -24 7
-5 7 -8 0 -13 -7 -4 -7 -12 -2 -21 6 -10 10 -2 15 26 11 65 11 69 -6 66 -12
-1 -15 6 -15 33 1 36 23 56 37 33 4 -7 11 -9 15 -5 4 3 2 12 -3 19 -6 7 -9 41
-8 75 2 66 -8 76 -19 18 -4 -19 -10 -35 -15 -35 -11 0 -6 30 14 74 13 30 19
36 26 25 7 -11 9 -11 9 4 0 9 4 25 9 35 20 37 33 106 22 110 -6 2 -11 11 -11
20 0 15 2 15 10 2 8 -13 10 -13 10 1 0 9 9 24 20 34 19 18 20 17 20 -3 0 -11
-4 -32 -10 -46 -5 -14 -6 -26 -1 -26 5 0 13 12 19 27 44 119 53 131 28 36 -8
-28 -10 -55 -6 -60 9 -8 -14 -111 -44 -196 -9 -27 -13 -53 -10 -59 4 -6 2 -8
-3 -5 -17 11 -35 -20 -32 -55 3 -43 -11 -130 -23 -145 -6 -7 -8 -20 -4 -28 3
-8 0 -15 -5 -15 -7 0 -9 -11 -6 -26 2 -15 0 -28 -8 -30 -6 -3 -11 -15 -10 -26
1 -12 -6 -42 -15 -67 -15 -41 -17 -67 -7 -138 3 -24 17 -44 17 -25 0 5 3 18 7
28 4 12 3 15 -5 10 -7 -4 -12 -1 -12 8 0 8 8 19 17 25 10 5 15 13 11 16 -4 4
-1 14 7 22 8 8 16 25 16 39 2 32 3 36 17 61 7 12 14 44 15 72 2 27 8 56 15 64
7 7 15 28 18 46 4 17 11 34 15 37 5 3 9 14 9 24 0 10 5 31 11 47 7 15 13 39
15 52 2 13 6 31 10 40 4 9 6 24 5 33 -1 10 4 32 12 50 37 86 57 146 57 169 0
14 3 29 7 33 4 4 9 19 11 33 2 14 10 39 18 54 7 15 14 39 14 52 0 13 3 27 8
31 4 4 7 11 8 14 0 4 4 18 7 32 4 14 8 35 10 47 2 12 6 26 10 29 4 4 7 19 7
34 0 15 3 30 7 34 7 7 10 19 19 86 4 24 13 55 21 67 9 14 13 36 10 55 -3 19 1
39 8 48 6 8 20 49 30 90 17 70 20 86 28 143 2 12 8 31 14 42 11 21 37 135 48
215 4 25 18 86 30 135 13 50 34 135 45 190 12 55 26 111 30 125 7 21 9 19 9
-17 1 -24 -3 -43 -8 -43 -5 0 -7 -9 -4 -19 3 -10 0 -28 -6 -39 -11 -21 -21
-66 -26 -122 -2 -19 -7 -53 -11 -75 -3 -22 -7 -48 -7 -57 -1 -9 -4 -15 -8 -12
-4 2 -9 -7 -11 -21 -3 -14 -1 -25 3 -25 14 0 10 -27 -6 -40 -12 -10 -13 -16
-3 -28 8 -9 8 -13 2 -9 -14 8 -32 -55 -29 -99 0 -16 -5 -35 -13 -43 -7 -8 -11
-23 -9 -33 3 -10 -1 -30 -8 -45 -7 -14 -12 -34 -10 -44 2 -11 -1 -19 -7 -19
-6 0 -8 -13 -6 -30 3 -17 1 -30 -3 -30 -4 0 -10 -7 -13 -16 -3 -8 -2 -12 4 -9
16 10 11 -42 -5 -55 -9 -7 -14 -19 -11 -27 3 -7 2 -13 -3 -13 -4 0 -16 -26
-24 -57 -13 -43 -14 -59 -5 -64 9 -6 8 -12 -3 -26 -9 -10 -19 -27 -23 -37 -6
-17 -4 -17 11 -5 10 7 8 2 -5 -13 -17 -19 -24 -39 -25 -76 -1 -30 -5 -46 -10
-39 -5 7 -7 1 -4 -15 2 -15 1 -25 -4 -23 -8 6 -13 -8 -24 -64 -5 -23 -4 -31 4
-27 14 9 14 -9 1 -34 -7 -12 -7 -21 0 -25 6 -4 5 -11 -3 -19 -10 -12 -13 -11
-20 3 -4 10 -5 6 -2 -11 3 -16 0 -28 -8 -31 -9 -4 -9 -7 0 -14 13 -9 12 -24
-6 -66 -6 -16 -8 -34 -4 -40 4 -6 1 -8 -8 -5 -11 4 -14 -5 -14 -38 0 -37 3
-44 20 -44 17 0 17 2 5 10 -13 8 -13 10 2 10 9 0 19 -6 21 -12 3 -7 3 1 0 18
-3 20 0 35 8 39 7 5 10 4 6 -3 -5 -6 0 -8 12 -5 10 3 24 14 30 26 8 15 10 16
6 4 -3 -10 -8 -37 -11 -60 -7 -53 12 -30 21 25 4 21 11 38 16 38 12 0 12 37
-1 45 -5 3 -10 14 -10 24 0 10 -7 24 -15 31 -12 10 -15 9 -15 -6 0 -11 -3 -30
-6 -44 -6 -23 -6 -24 8 -7 12 16 16 17 26 4 11 -12 7 -17 -19 -26 -22 -8 -30
-15 -25 -26 3 -9 2 -14 -3 -11 -12 8 -20 56 -9 56 5 0 7 4 3 9 -3 5 -1 12 5
16 5 3 10 18 10 32 0 19 4 24 16 19 9 -3 21 -6 28 -6 9 0 12 -9 8 -25 -2 -15
0 -25 7 -25 7 0 9 4 6 10 -3 5 -2 18 3 27 5 10 12 34 15 53 l6 35 -16 -30
c-22 -41 -21 -41 -38 -19 -9 12 -14 14 -15 6 0 -7 -5 -10 -10 -7 -7 4 -7 11
-2 18 5 7 13 30 17 52 5 22 10 45 11 50 13 42 63 247 68 277 4 21 12 40 18 44
8 5 9 1 4 -12 -6 -15 -3 -14 18 5 32 30 32 31 1 25 -18 -3 -25 0 -25 11 0 8 5
15 11 15 5 0 8 4 5 9 -14 23 7 43 41 39 31 -4 34 -2 44 34 6 23 14 36 21 32 7
-4 6 -9 -3 -15 -11 -7 -11 -11 -2 -17 14 -9 6 -52 -9 -52 -5 0 -7 -9 -3 -20 3
-10 2 -35 -4 -55 -5 -21 -6 -35 0 -35 5 0 9 9 9 21 0 16 4 19 23 14 18 -5 19
-4 6 4 -14 9 -15 19 -8 57 9 49 15 61 24 52 3 -3 1 -18 -5 -34 -9 -23 -9 -27
1 -17 7 7 14 23 16 35 4 28 33 52 46 39 9 -9 6 -49 -7 -113 -6 -26 -11 -55
-20 -103 -2 -11 -9 -33 -15 -48 -6 -16 -11 -36 -11 -45 1 -16 1 -15 11 1 5 9
15 17 22 17 8 0 8 -3 2 -8 -14 -10 -17 -32 -5 -32 6 0 10 6 11 13 0 6 2 20 4
30 2 12 -1 17 -10 13 -16 -6 -9 21 12 42 13 14 35 83 37 119 2 24 26 57 26 35
0 -7 7 -12 15 -12 8 0 36 -20 62 -45 26 -24 51 -45 56 -45 4 0 7 -7 7 -15 0
-8 4 -15 9 -15 9 0 69 -59 239 -234 52 -53 98 -96 103 -96 5 0 9 -5 9 -11 0
-11 46 -71 95 -125 32 -35 55 -64 110 -134 27 -36 55 -72 62 -80 38 -47 172
-209 193 -234 14 -16 48 -55 77 -85 29 -31 65 -72 81 -93 15 -20 54 -65 84
-100 31 -34 89 -101 129 -148 39 -47 99 -114 133 -150 33 -36 85 -94 115 -128
30 -34 57 -59 62 -57 4 3 10 1 14 -5 3 -5 1 -10 -6 -10 -7 0 1 -13 17 -29 16
-16 47 -50 69 -76 22 -27 58 -67 80 -89 22 -23 75 -78 117 -121 104 -109 144
-146 203 -190 28 -21 71 -61 96 -89 26 -28 49 -49 53 -46 3 3 -29 42 -72 87
-141 147 -161 170 -156 176 3 2 37 -27 77 -65 40 -39 95 -90 122 -114 28 -25
91 -83 140 -129 84 -79 115 -99 115 -75 0 17 -61 95 -72 92 -5 -1 -7 2 -3 8 3
5 -1 10 -9 10 -8 0 -20 8 -25 17 -18 34 -90 103 -108 104 -11 0 -13 3 -5 6 8
3 5 10 -10 23 -13 10 -21 21 -18 23 3 3 37 -23 75 -59 38 -35 90 -81 114 -102
47 -38 116 -98 139 -120 8 -7 18 -10 22 -7 9 5 -5 26 -40 63 -8 9 -15 20 -15
26 0 6 -4 11 -10 11 -19 0 -34 16 -29 29 3 8 -7 23 -21 34 -22 18 -25 24 -15
39 9 15 11 15 6 1 -3 -9 2 -19 10 -22 12 -5 14 -1 8 17 -6 20 -5 21 12 7 11
-8 30 -21 43 -28 19 -11 22 -11 15 0 -5 7 -7 24 -6 38 2 16 -5 33 -18 45 -19
17 -19 20 -4 36 10 11 13 23 8 31 -5 8 2 6 19 -4 66 -44 38 -7 -102 133 -83
83 -151 155 -151 160 0 5 -7 9 -15 9 -8 0 -15 3 -15 8 0 4 -53 62 -117 128
-132 136 -203 217 -197 223 3 3 39 -31 81 -75 282 -293 565 -569 637 -621 17
-12 36 -26 41 -30 6 -4 19 -15 30 -23 11 -8 3 6 -18 31 -20 25 -37 50 -37 55
0 5 -19 28 -41 52 -22 23 -37 42 -33 42 4 0 -10 18 -32 40 -21 22 -45 38 -52
35 -7 -3 -10 0 -7 6 4 5 -9 25 -29 43 -20 18 -36 37 -36 44 0 6 -9 14 -20 17
-11 3 -20 12 -20 18 0 7 -28 39 -62 72 -35 33 -104 103 -155 156 -51 53 -94
95 -96 93 -2 -3 -17 12 -32 33 -16 21 -39 49 -52 63 -52 56 -79 87 -106 120
-27 34 -117 132 -222 245 -27 29 -59 65 -70 79 -11 14 -29 36 -40 49 -11 13
-29 36 -40 51 -11 15 -29 38 -40 51 -11 12 -36 42 -55 65 -19 23 -40 47 -45
54 -6 6 -53 65 -105 131 -118 149 -117 148 -165 205 -22 25 -67 82 -100 125
-33 43 -78 99 -100 125 -22 26 -60 71 -85 100 -25 29 -62 73 -84 97 -21 24
-34 43 -30 43 12 0 124 -116 190 -195 27 -33 54 -63 60 -67 6 -4 37 -40 69
-80 32 -40 63 -78 69 -83 6 -6 27 -30 46 -55 39 -51 96 -116 123 -139 9 -8 17
-19 17 -24 0 -5 12 -21 28 -35 15 -15 43 -47 62 -71 19 -24 52 -63 73 -85 20
-22 37 -43 37 -46 0 -4 11 -13 25 -20 13 -7 22 -16 20 -20 -5 -8 28 -45 78
-88 21 -17 35 -32 31 -32 -4 0 2 -8 12 -18 11 -9 35 -37 54 -62 19 -25 55 -67
80 -93 25 -27 49 -56 54 -65 9 -17 45 -57 127 -141 25 -25 48 -54 52 -63 3
-10 11 -18 16 -18 5 0 13 -9 16 -21 4 -11 9 -18 12 -16 6 6 53 -41 53 -53 0
-6 5 -10 10 -10 6 0 10 -7 10 -15 0 -8 7 -15 15 -15 8 0 22 -12 32 -27 10 -16
33 -41 52 -58 19 -16 41 -39 50 -49 33 -40 157 -158 184 -174 15 -9 27 -20 27
-24 0 -7 45 -53 80 -82 29 -24 72 -48 77 -43 6 6 -27 57 -37 57 -11 0 -50 36
-50 47 0 6 -9 18 -20 28 -10 9 -18 22 -17 29 1 6 -6 10 -16 8 -20 -3 -57 32
-57 54 0 7 -9 18 -20 24 -11 6 -17 16 -14 22 5 8 1 9 -10 5 -14 -6 -17 -3 -12
9 4 11 2 15 -8 11 -10 -4 -13 -1 -9 8 8 22 25 9 144 -107 59 -57 139 -132 179
-168 39 -36 73 -67 76 -69 2 -2 4 2 4 11 0 8 -11 20 -25 26 -14 6 -25 18 -25
26 0 8 -13 23 -29 32 -16 9 -36 32 -45 51 -9 18 -27 38 -41 43 -14 5 -25 15
-25 21 0 6 -35 46 -77 89 -101 100 -134 140 -119 140 7 0 24 -12 38 -27 14
-16 49 -48 79 -73 30 -24 78 -68 106 -97 29 -29 55 -53 57 -53 2 0 7 7 10 16
3 8 2 13 -3 10 -11 -7 -33 18 -24 27 10 11 25 8 18 -3 -4 -6 1 -7 12 -3 14 6
11 9 -16 20 -18 8 -35 23 -38 33 -3 11 -14 22 -24 25 -10 4 -19 9 -20 13 -3
30 -10 47 -19 50 -6 2 -22 15 -35 27 -12 13 -26 21 -31 17 -4 -4 -4 -2 -1 4 4
7 -3 25 -15 40 -13 16 -16 23 -7 17 12 -10 18 -10 29 0 10 9 11 9 6 -1 -9 -15
12 -44 25 -36 5 3 6 -3 2 -13 -5 -15 -3 -16 8 -5 7 6 17 12 21 12 5 0 8 -6 6
-12 -3 -21 13 -59 23 -53 5 4 9 1 9 -4 0 -6 10 -11 23 -11 12 0 28 -4 36 -9
22 -14 44 -2 30 15 -14 17 -33 19 -23 2 4 -7 3 -8 -5 -4 -6 4 -9 12 -5 17 8
13 -155 175 -173 171 -11 -3 -17 10 -10 23 3 5 -35 34 -45 35 -14 0 -8 -21 13
-51 21 -30 18 -49 -8 -49 -10 0 -13 6 -9 16 3 8 2 12 -3 9 -6 -3 -13 1 -18 9
-4 8 -15 16 -23 18 -8 2 -23 12 -33 23 -10 11 -16 14 -12 5 4 -8 -3 -4 -15 10
-13 14 -29 24 -37 22 -8 -2 -12 1 -9 6 3 6 -2 8 -14 5 -20 -5 -28 -23 -10 -23
6 0 10 -7 10 -16 0 -8 4 -12 10 -9 5 3 7 0 4 -8 -3 -8 -13 -13 -23 -10 -24 6
-64 60 -55 75 4 7 11 2 19 -12 11 -21 12 -21 19 -4 4 12 2 23 -8 29 -9 7 -13
20 -10 32 3 11 -1 27 -10 36 -9 8 -16 20 -16 26 0 6 -4 11 -10 11 -5 0 -10 7
-10 16 0 8 -4 13 -9 9 -5 -3 -12 -1 -15 4 -7 11 -46 3 -46 -9 0 -5 6 -15 13
-22 19 -19 47 -61 47 -70 0 -19 -31 -5 -74 33 -33 29 -46 36 -46 24 0 -9 -4
-13 -10 -10 -6 3 -7 -1 -3 -10 4 -11 8 -13 13 -6 4 7 19 -4 38 -28 20 -24 27
-41 20 -43 -19 -7 -56 15 -62 35 -2 10 -8 17 -13 16 -21 -4 -31 3 -36 22 -4
13 -10 18 -18 13 -8 -5 -10 -3 -5 5 5 8 0 14 -13 18 -12 3 -21 10 -21 15 0 5
4 7 9 4 5 -4 7 2 4 12 -2 10 -14 22 -26 27 -12 6 -22 19 -22 30 0 11 -4 26 -9
34 -7 11 -10 11 -17 0 -5 -9 -11 -10 -18 -4 -6 7 -5 16 3 27 12 16 16 14 55
-22 24 -22 48 -37 54 -33 6 4 1 10 -12 15 -13 4 -21 13 -19 19 4 11 -17 39
-74 102 -15 16 -30 38 -33 48 -4 11 -11 19 -16 19 -6 0 -7 5 -4 11 4 6 -2 13
-13 16 -11 2 -22 13 -25 24 -3 12 -1 17 6 12 7 -4 8 0 4 11 -4 11 -3 15 4 11
5 -4 8 -12 6 -18 -2 -7 7 -20 19 -30 13 -9 26 -27 29 -38 4 -11 19 -22 36 -26
16 -3 27 -9 24 -13 -7 -11 32 -43 44 -35 17 10 -6 44 -34 51 -23 6 -85 89 -85
115 0 5 -4 7 -10 4 -5 -3 -10 0 -10 8 0 22 -33 91 -53 111 -9 10 -21 14 -27
11 -5 -3 -10 1 -10 9 0 22 -17 28 -40 16 -16 -9 -20 -8 -20 6 0 9 -8 18 -17
21 -10 2 -26 20 -35 39 -17 32 -17 34 0 34 11 0 13 3 5 8 -6 4 -14 19 -18 33
-3 14 -16 37 -29 50 -12 13 -25 33 -29 44 -7 19 -7 19 10 -1 27 -30 74 -49 84
-32 11 17 11 28 1 28 -4 0 -16 15 -27 33 -10 17 -30 44 -44 59 -71 74 -73 78
-36 78 18 0 28 -7 35 -25 5 -14 15 -25 22 -24 10 0 10 2 1 5 -7 3 -10 11 -7
18 3 7 -2 19 -11 26 -8 7 -15 17 -15 22 0 6 -15 29 -32 52 -18 22 -25 35 -16
28 9 -8 19 -9 22 -4 3 6 -6 18 -20 27 -18 11 -24 12 -18 4 6 -12 5 -12 -8 -1
-10 8 -14 20 -11 29 4 11 2 14 -5 9 -8 -4 -10 -2 -6 8 5 14 -22 60 -58 98 -10
10 -18 21 -18 26 0 4 -30 39 -67 77 -75 80 -133 149 -133 159 0 4 10 -2 22
-14 12 -11 27 -20 34 -20 6 0 14 -9 17 -21 3 -12 10 -18 16 -14 7 3 11 -2 11
-14 0 -13 5 -19 14 -15 8 3 29 -14 52 -43 22 -26 43 -50 48 -52 19 -8 102 -96
133 -141 43 -62 109 -124 117 -111 4 6 3 11 -2 11 -6 0 -13 7 -16 16 -6 15 -4
15 11 3 26 -21 62 -63 63 -73 0 -5 -7 -2 -16 5 -14 12 -16 11 -12 -6 3 -15 11
-19 31 -17 15 1 27 -2 27 -7 0 -6 7 -8 15 -5 10 4 13 2 10 -8 -3 -8 1 -21 10
-28 17 -14 20 -3 6 32 -5 13 -21 30 -35 37 -14 8 -26 18 -26 23 0 4 -9 18 -20
31 -46 51 -51 59 -46 64 3 3 0 11 -8 17 -55 45 -229 272 -220 287 3 5 -3 12
-13 16 -23 9 -73 64 -73 81 0 7 -5 10 -12 6 -7 -5 -8 -3 -3 6 6 10 14 6 32
-16 12 -16 23 -32 23 -36 0 -5 6 -8 13 -8 16 0 58 -46 50 -54 -4 -3 1 -6 11
-6 9 0 19 -7 22 -15 4 -8 12 -15 20 -15 20 0 96 -79 88 -91 -3 -6 0 -10 7 -8
28 3 37 -2 43 -24 3 -13 17 -29 31 -37 14 -7 25 -19 25 -26 0 -7 9 -18 20 -24
16 -9 20 -8 20 5 0 9 -4 13 -10 10 -5 -3 -10 -2 -10 4 0 5 -20 31 -45 58 -25
26 -45 51 -45 56 0 5 -7 6 -16 3 -13 -5 -15 -2 -11 14 3 13 -1 21 -14 25 -10
4 -19 13 -19 20 0 8 -19 35 -42 60 -24 26 -43 52 -43 59 0 11 -9 24 -45 64 -8
10 -23 30 -33 45 -10 15 -29 33 -43 39 -14 7 -23 17 -20 25 3 7 2 13 -2 13 -4
0 -13 9 -20 20 -22 36 7 22 51 -25 24 -25 47 -42 50 -38 9 8 -11 38 -59 89
-50 52 -74 85 -74 101 0 21 10 16 71 -37 32 -27 62 -50 67 -50 6 0 12 -6 15
-12 2 -7 4 1 3 19 -1 17 -5 35 -9 39 -4 4 -7 14 -7 23 -1 9 -15 25 -33 36 -18
11 -32 25 -32 30 0 6 -4 16 -8 23 -5 7 -3 12 4 12 7 0 5 9 -6 26 -9 14 -14 32
-11 39 3 9 0 12 -11 8 -8 -3 -19 0 -24 8 -13 21 -11 32 5 26 7 -3 19 0 25 6 6
6 11 7 11 2 0 -6 8 8 18 29 l18 40 -31 29 c-16 16 -25 27 -20 24 6 -3 16 1 23
9 11 12 7 13 -23 8 -27 -4 -35 -2 -35 10 0 9 6 16 14 16 8 0 17 7 20 15 3 9
19 21 35 26 17 6 33 19 36 30 4 10 13 19 21 19 8 0 14 4 14 9 0 12 -29 41 -40
41 -15 0 -21 -18 -8 -23 16 -6 -35 -27 -63 -27 -13 0 -19 -6 -17 -17 2 -10 -2
-18 -9 -18 -6 0 -15 -3 -19 -8 -12 -12 -32 -8 -53 9 -23 20 -16 51 13 58 11 2
1 4 -24 3 -39 -2 -45 1 -45 18 0 15 6 19 22 18 14 -2 21 2 17 10 -2 7 5 19 17
27 12 8 31 23 41 33 10 9 18 14 18 10 1 -5 9 2 19 14 10 12 21 19 25 16 3 -4
6 -1 6 6 0 8 7 11 15 7 8 -3 15 -1 15 4 0 6 5 10 11 10 16 0 41 28 35 39 -4 5
-1 11 6 13 7 3 8 10 2 21 -8 14 -14 13 -52 -11 -23 -15 -42 -34 -42 -42 0 -12
-2 -13 -9 -1 -7 11 -11 9 -20 -8 -7 -12 -9 -26 -6 -31 4 -6 -1 -7 -11 -3 -13
5 -15 3 -9 -7 6 -10 3 -12 -13 -8 -16 5 -22 1 -23 -10 0 -10 -3 -12 -5 -5 -8
18 -33 4 -27 -15 4 -14 3 -15 -6 -2 -5 8 -12 12 -14 10 -2 -3 -11 -16 -20 -30
-9 -13 -17 -19 -17 -13 0 7 -7 10 -15 7 -26 -10 -16 12 20 45 19 17 35 27 35
21 0 -6 16 4 35 21 19 18 32 36 29 40 -3 5 6 9 21 9 27 0 47 31 38 60 -3 10 0
9 11 -4 14 -18 16 -17 39 8 13 14 28 26 33 26 5 0 23 15 41 34 17 19 34 32 37
29 3 -4 6 -1 6 5 0 7 6 12 13 12 8 0 33 18 56 40 23 22 46 38 50 36 4 -3 14 6
21 19 7 14 17 25 22 25 15 0 96 65 109 88 7 12 18 22 24 22 7 0 33 18 59 41
25 22 46 37 46 32 0 -4 5 0 11 10 6 9 14 15 18 13 4 -3 14 6 21 19 7 14 16 25
19 25 3 0 35 27 70 60 35 33 69 60 76 60 16 0 47 35 38 44 -4 4 1 4 11 0 13
-5 17 -4 12 4 -4 7 -2 10 7 6 7 -2 14 -11 14 -19 0 -8 -3 -13 -6 -11 -14 9
-51 -15 -51 -33 0 -10 -12 -27 -27 -37 -25 -16 -79 -63 -150 -132 -13 -12 -27
-22 -31 -22 -15 -1 -62 -50 -62 -65 0 -9 -4 -14 -8 -11 -12 7 -62 -39 -62 -58
0 -10 -4 -15 -8 -12 -4 2 -8 -4 -8 -15 0 -24 5 -24 36 1 14 11 30 20 35 20 6
0 30 18 54 41 30 29 47 39 59 34 12 -5 13 -9 4 -12 -6 -3 -9 -10 -6 -15 5 -7
2 -8 -5 -4 -8 5 -14 0 -18 -13 -3 -12 -12 -20 -21 -19 -8 2 -23 -10 -32 -27
-12 -21 -23 -29 -38 -27 -12 2 -22 -1 -22 -7 0 -6 8 -8 18 -4 9 3 1 -6 -18
-21 -36 -28 -55 -61 -40 -71 12 -7 23 12 14 27 -4 7 -3 8 4 4 7 -4 12 -2 12 4
0 8 9 10 25 6 14 -4 25 -3 24 1 -5 28 2 45 16 39 9 -3 15 0 15 9 0 18 48 70
56 62 12 -11 47 14 132 92 20 18 31 30 23 26 -9 -5 -12 -3 -9 6 3 8 13 13 22
13 9 -1 16 2 16 7 0 5 7 9 15 9 8 0 15 7 15 15 0 8 4 15 9 15 4 0 24 13 42 30
33 29 56 40 44 21 -3 -5 -1 -12 5 -16 5 -3 10 -1 10 4 0 6 3 10 8 10 18 -3 32
2 32 12 0 6 -9 8 -20 4 -30 -10 -24 2 10 20 21 11 30 23 30 40 0 34 17 40 25
8 6 -26 7 -26 17 -8 8 14 8 20 0 23 -12 4 -17 32 -6 32 3 0 14 -4 24 -10 28
-15 69 22 68 63 0 17 -5 38 -11 45 -7 9 -6 11 7 6 11 -4 16 -1 16 12 0 9 3 14
7 11 3 -4 12 -2 20 4 10 9 13 8 13 -5 0 -10 5 -14 11 -11 6 4 8 12 6 19 -5 12
15 41 46 65 23 18 22 0 -2 -26 -12 -12 -18 -29 -14 -41 3 -12 -3 -28 -14 -40
-10 -11 -33 -39 -52 -61 -18 -23 -39 -41 -47 -41 -8 0 -14 -5 -14 -11 0 -7 -8
-18 -17 -25 -10 -7 -15 -16 -11 -20 5 -4 27 13 50 37 50 53 88 75 99 58 4 -8
9 -4 14 10 3 11 13 21 21 21 8 0 14 6 14 14 0 8 6 17 13 20 6 4 2 4 -11 2 -12
-2 -20 0 -16 5 3 5 12 9 20 9 8 0 14 7 14 15 0 8 6 12 13 9 7 -2 25 9 40 26
15 16 32 30 37 30 6 0 10 10 10 22 0 12 3 18 7 15 3 -4 12 1 19 11 16 21 18
36 3 26 -7 -4 -10 -1 -7 7 3 8 17 13 32 13 20 -1 31 5 38 22 15 32 33 36 33 8
0 -14 -5 -22 -11 -20 -7 3 -10 -3 -7 -15 3 -10 9 -16 14 -13 10 6 6 -47 -5
-65 -14 -23 13 -10 33 15 12 15 21 22 21 15 0 -6 10 -1 23 11 24 25 67 85 67
95 0 8 33 32 45 33 5 0 4 -5 -3 -12 -7 -7 -12 -19 -12 -27 0 -9 9 -2 21 17 21
33 43 44 33 17 -4 -8 -1 -15 5 -15 6 0 10 3 9 8 -3 13 14 62 21 62 4 0 18 24
32 53 13 28 28 55 34 59 5 4 7 8 3 8 -4 0 0 16 8 36 8 20 10 33 5 29 -6 -3
-11 -1 -11 4 0 6 5 11 10 11 6 0 10 7 10 15 0 8 5 15 10 15 6 0 10 8 10 18 0
10 3 22 7 26 7 7 10 16 23 86 5 25 13 65 18 89 5 24 8 79 5 123 -3 67 -10 91
-38 147 -54 103 -82 151 -99 170 -9 9 -21 32 -27 49 -6 18 -15 32 -19 32 -5 0
-17 26 -27 58 -9 31 -20 59 -23 62 -4 3 -14 31 -24 62 -16 52 -40 87 -55 80
-3 -2 -8 5 -9 15 -2 10 -14 29 -27 43 -12 14 -28 35 -34 48 -6 12 -20 22 -31
22 -14 0 -24 15 -41 60 -12 33 -28 65 -35 71 -8 6 -14 15 -14 20 0 14 -64 93
-117 145 -28 27 -55 58 -61 69 -8 14 -12 16 -12 5 0 -13 -1 -13 -10 0 -9 13
-12 13 -25 -4 -12 -16 -12 -21 3 -41 9 -13 22 -20 27 -18 6 3 5 1 -1 -6 -15
-16 -94 24 -94 47 0 8 -3 12 -7 9 -3 -4 -13 2 -20 13 -10 14 -21 19 -34 15
-15 -5 -29 3 -54 30 -21 23 -38 34 -46 30 -7 -5 -17 -2 -23 7 -8 11 -14 12
-22 4z m-264 -268 c0 -5 -9 -4 -20 2 -11 6 -20 12 -20 14 0 2 9 2 20 -1 11 -3
20 -9 20 -15z m-265 -29 c4 -5 -3 -9 -14 -9 -11 0 -22 4 -25 8 -2 4 4 8 14 9
11 1 22 -2 25 -8z m45 1 c0 -5 -7 -10 -16 -10 -8 0 -12 5 -9 10 3 6 10 10 16
10 5 0 9 -4 9 -10z m580 -34 c0 -3 -4 -8 -10 -11 -5 -3 -10 -1 -10 4 0 6 5 11
10 11 6 0 10 -2 10 -4z m-435 -46 c3 -5 -4 -10 -17 -11 -18 -1 -16 -3 10 -10
28 -8 36 -7 48 8 9 12 13 13 12 4 -2 -11 11 -15 50 -17 39 -2 52 1 52 12 0 16
28 18 50 3 12 -8 11 -9 -6 -4 -14 4 -24 0 -28 -10 -8 -21 57 -21 74 0 14 17
30 20 30 5 0 -5 -7 -10 -15 -10 -8 0 -15 -4 -15 -10 0 -5 13 -10 29 -10 17 0
33 -4 36 -10 8 -13 -56 -13 -165 1 -47 5 -140 10 -207 10 -73 0 -123 3 -123 9
0 6 3 10 8 11 4 0 27 2 51 4 47 4 69 15 30 15 -19 0 -21 2 -9 10 20 13 97 13
105 0z m-235 -40 c0 -5 -5 -10 -11 -10 -5 0 -7 5 -4 10 3 6 8 10 11 10 2 0 4
-4 4 -10z m40 -2 c0 -4 -7 -8 -15 -8 -8 0 -15 4 -15 8 0 5 7 9 15 9 8 0 15 -4
15 -9z m570 -32 c0 -11 -19 -15 -25 -6 -3 5 1 10 9 10 9 0 16 -2 16 -4z m-976
-45 c3 -5 -5 -11 -19 -13 -28 -6 -35 8 -7 15 9 3 18 5 19 6 1 0 4 -3 7 -8z
m56 -26 c-7 -8 -17 -12 -22 -9 -5 3 -1 12 9 19 22 17 30 11 13 -10z m798 11
c2 -3 2 -12 -2 -21 -4 -13 -10 -14 -26 -5 -11 6 -20 7 -20 2 0 -14 -29 -10
-34 5 -3 7 -10 13 -17 13 -6 0 -8 -7 -5 -16 5 -12 0 -15 -22 -12 -15 2 -26 8
-24 16 1 7 -8 12 -23 12 -19 0 -23 -4 -19 -17 5 -15 3 -15 -11 2 -15 19 -15
20 7 26 25 7 188 2 196 -5z m-418 -9 c0 6 7 10 15 9 25 -4 28 -14 6 -21 -24
-7 -41 0 -41 18 0 7 4 6 10 -3 5 -8 10 -10 10 -3z m70 9 c0 -3 -4 -8 -10 -11
-5 -3 -10 -1 -10 4 0 6 5 11 10 11 6 0 10 -2 10 -4z m-258 -18 c-14 -14 -72
-20 -72 -8 0 8 23 14 70 19 11 1 11 -2 2 -11z m643 2 c3 -5 2 -10 -4 -10 -5 0
-13 5 -16 10 -3 6 -2 10 4 10 5 0 13 -4 16 -10z m-935 -10 c0 -5 -5 -10 -11
-10 -5 0 -7 5 -4 10 3 6 8 10 11 10 2 0 4 -4 4 -10z m990 0 c0 -5 -7 -10 -15
-10 -8 0 -15 5 -15 10 0 6 7 10 15 10 8 0 15 -4 15 -10z m-914 -29 c-4 -5 -15
-8 -26 -6 -13 2 -20 -2 -20 -11 0 -8 -5 -12 -10 -9 -6 4 -8 11 -5 16 4 5 0 10
-7 10 -7 1 5 5 27 8 45 7 50 7 41 -8z m84 9 c0 -5 -2 -10 -4 -10 -3 0 -8 5
-11 10 -3 6 -1 10 4 10 6 0 11 -4 11 -10z m-990 -7 c0 -1 -9 -7 -20 -13 -15
-8 -20 -8 -20 3 0 7 9 13 20 13 11 0 20 -1 20 -3z m1627 -7 c4 -7 15 -16 23
-19 13 -5 13 -6 -1 -6 -9 -1 -24 8 -34 19 -10 11 -13 20 -7 20 6 0 15 -6 19
-14z m28 4 c3 -5 1 -10 -4 -10 -6 0 -11 5 -11 10 0 6 2 10 4 10 3 0 8 -4 11
-10z m-229 -15 c17 -13 17 -14 2 -15 -31 0 -19 -20 11 -20 17 0 33 -4 36 -10
3 -5 1 -10 -4 -10 -6 0 -11 -6 -11 -14 0 -19 -107 -19 -114 0 -3 8 2 14 12 15
14 0 14 2 -3 9 -22 9 -22 9 14 16 31 6 43 17 16 14 -33 -4 -45 -1 -45 11 0 5
4 8 8 5 4 -2 14 -1 22 5 21 12 33 11 56 -6z m138 -6 c4 -4 -4 -6 -18 -6 -14 0
-26 4 -26 9 0 5 5 6 10 3 6 -3 10 -1 10 6 0 7 3 8 8 3 4 -5 11 -12 16 -15z
m-1634 -4 c-14 -16 -60 -21 -60 -6 0 9 22 16 59 20 11 1 11 -2 1 -14z m900 5
c0 -5 -3 -10 -7 -11 -5 0 -21 -2 -38 -4 l-30 -4 30 14 c36 17 45 18 45 5z
m490 0 c0 -5 -7 -10 -16 -10 -8 0 -12 5 -9 10 3 6 10 10 16 10 5 0 9 -4 9 -10z
m404 -6 c8 -22 8 -26 -4 -19 -5 3 -2 -7 8 -24 18 -33 11 -51 -13 -31 -10 8
-15 9 -15 1 0 -23 -17 -10 -34 26 -12 25 -13 33 -4 25 9 -7 19 -8 28 -2 12 8
11 10 -4 10 -20 0 -20 0 0 15 25 19 31 18 38 -1z m-661 -19 c-6 -16 -53 -21
-53 -5 0 5 6 7 14 4 7 -3 16 2 20 11 3 9 10 14 15 10 6 -3 8 -12 4 -20z m504
-30 c-10 -11 -13 -10 -18 4 -9 23 0 34 16 21 11 -9 12 -15 2 -25z m-420 -25
c-17 -8 -40 -22 -50 -31 -11 -10 -27 -14 -40 -11 -20 5 -20 6 7 15 21 7 25 12
15 18 -18 11 -8 19 31 24 18 2 38 9 43 14 8 8 13 7 19 -2 5 -8 -3 -17 -25 -27z
m99 15 c-20 -15 -41 -10 -30 6 3 6 12 8 20 5 8 -3 14 0 14 6 0 6 3 8 7 4 5 -4
-1 -14 -11 -21z m394 0 c-7 -8 -17 -12 -23 -8 -6 4 -3 11 8 19 23 17 32 10 15
-11z m-1725 5 c3 -5 1 -10 -4 -10 -6 0 -11 5 -11 10 0 6 2 10 4 10 3 0 8 -4
11 -10z m1425 -21 c0 -5 -4 -9 -10 -9 -5 0 -10 7 -10 16 0 8 5 12 10 9 6 -3
10 -10 10 -16z m-280 1 c0 -5 -8 -10 -17 -10 -15 0 -16 2 -3 10 19 12 20 12
20 0z m-146 -19 c6 -9 -14 -21 -43 -27 -30 -6 -70 -27 -66 -34 2 -4 -6 -5 -19
-3 -13 3 -27 0 -30 -6 -10 -15 -36 -2 -36 19 0 10 6 22 13 27 14 12 77 13 77
2 0 -5 19 0 43 11 50 22 54 23 61 11z m46 1 c0 -5 -7 -9 -15 -9 -8 0 -12 4 -9
9 3 4 9 8 15 8 5 0 9 -4 9 -8z m453 -58 c-5 -15 16 -19 72 -15 62 5 150 6 163
3 13 -4 17 -23 5 -21 -21 3 -34 -2 -31 -13 5 -15 -27 -52 -39 -45 -5 3 -15 2
-23 -4 -13 -7 -13 -9 0 -10 8 0 27 -2 43 -3 15 -1 27 2 27 7 0 5 9 6 20 2 15
-5 18 -3 14 9 -3 9 -10 13 -15 10 -5 -3 -9 -1 -9 4 0 13 20 20 50 16 14 -1 31
-3 38 -3 26 -2 11 -21 -17 -21 -21 0 -30 -6 -34 -21 -4 -16 -3 -18 8 -9 13 11
25 -5 25 -35 0 -20 -119 -160 -133 -157 -7 2 -9 0 -5 -3 11 -11 -11 -45 -28
-45 -11 0 -14 5 -10 16 5 13 4 14 -7 6 -8 -7 -16 -10 -19 -7 -2 3 -5 -2 -5
-10 0 -8 4 -12 9 -9 4 3 8 0 8 -5 0 -6 -6 -11 -12 -11 -10 0 -10 -2 0 -9 10
-6 10 -10 -2 -20 -10 -8 -16 -9 -21 -1 -12 19 -34 10 -78 -32 -24 -24 -69 -67
-100 -96 -31 -30 -57 -57 -57 -61 0 -4 -11 -13 -25 -19 -30 -14 -33 -32 -5
-32 11 0 20 7 20 15 0 8 5 15 10 15 6 0 24 10 40 22 70 51 30 3 -100 -121
-142 -137 -193 -176 -212 -165 -7 4 -5 10 6 16 9 5 16 15 16 22 0 8 7 17 16
20 9 4 14 9 11 12 -3 3 -14 1 -25 -5 -30 -16 -108 -91 -95 -91 7 0 15 5 18 10
6 10 55 14 55 4 0 -9 -59 -63 -180 -164 -29 -25 -67 -57 -83 -72 -17 -16 -34
-28 -38 -28 -5 0 -17 -10 -29 -22 -11 -12 -30 -23 -42 -25 -13 -2 -18 0 -12 4
6 5 12 16 12 26 4 39 6 47 10 42 2 -2 18 3 34 11 17 9 27 18 24 22 -4 3 -12 0
-18 -6 -24 -24 -40 -14 -32 21 4 17 6 53 5 78 -1 25 5 91 13 145 8 54 19 180
25 279 18 281 11 258 84 283 34 12 72 22 84 22 12 0 25 4 28 10 7 11 -45 10
-60 -1 -13 -10 -55 -8 -55 3 0 12 17 18 59 22 23 2 48 9 56 16 10 8 15 9 15 1
0 -7 8 -8 26 -1 43 17 51 10 14 -10 -30 -16 -27 -27 5 -20 6 1 17 3 25 5 8 2
49 11 90 21 41 10 81 18 88 17 6 0 12 4 12 9 0 5 9 7 19 3 16 -5 18 -2 14 15
-4 14 -1 20 10 20 10 0 14 -7 10 -22 -3 -14 -1 -18 4 -12 4 6 35 14 68 17 33
3 71 10 85 16 23 9 22 10 -12 6 -21 -2 -38 1 -38 6 0 5 17 9 38 9 40 0 62 14
62 39 0 11 -3 11 -19 -3 -17 -15 -20 -15 -34 -1 -9 8 -26 15 -39 16 -20 0 -21
1 -5 8 31 12 -2 29 -46 23 -28 -3 -37 -8 -33 -18 7 -18 -36 -39 -60 -30 -24 9
-10 19 26 18 18 0 28 3 24 9 -7 11 -73 10 -89 -2 -8 -5 -41 -5 -65 1 -3 0 6 8
20 16 14 8 17 13 7 10 -10 -3 -25 -6 -33 -6 -11 0 -14 -6 -9 -22 6 -23 6 -23
-9 -3 -8 11 -20 26 -26 33 -6 7 -7 12 -1 12 5 0 18 3 28 6 15 5 15 4 3 -5 -8
-6 -10 -11 -4 -11 5 0 15 5 21 11 8 8 20 9 42 1 24 -8 29 -8 25 2 -7 17 52 12
74 -6 13 -10 14 -10 8 0 -4 6 -2 12 3 12 6 0 11 -4 11 -10 0 -15 72 0 88 18 7
10 11 12 8 6 -3 -6 1 -11 9 -11 21 0 19 13 -2 22 -17 6 -17 7 0 16 9 6 21 8
26 4 5 -3 12 -1 15 3 9 15 55 2 49 -14z m-1703 12 c0 -2 -7 -7 -16 -10 -8 -3
-12 -2 -9 4 6 10 25 14 25 6z m-27 -27 c5 -3 1 -9 -8 -12 -9 -4 -13 -3 -10 3
3 6 1 10 -5 10 -6 0 -8 5 -5 11 4 6 10 7 14 2 3 -4 10 -11 14 -14z m2047 -16
c0 -15 -2 -16 -10 -3 -6 10 -10 11 -10 3 0 -7 -5 -13 -11 -13 -8 0 -8 5 1 15
17 20 30 19 30 -2z m-2106 -9 c3 -8 2 -12 -4 -9 -6 3 -10 10 -10 16 0 14 7 11
14 -7z m1376 -24 c12 -8 11 -10 -7 -10 -13 0 -23 5 -23 10 0 13 11 13 30 0z
m767 -12 c-3 -8 -6 -5 -6 6 -1 11 2 17 5 13 3 -3 4 -12 1 -19z m-883 -11 c-4
-12 -15 -15 -40 -12 -19 2 -33 1 -30 -3 3 -4 -9 -9 -27 -10 -30 -3 -30 -2 -13
17 13 14 27 18 56 15 22 -2 42 1 46 7 9 15 15 5 8 -14z m32 -2 c-4 -11 2 -15
22 -16 l27 -1 -30 -8 c-16 -4 -39 -11 -50 -15 -18 -6 -18 -5 -4 7 8 7 18 21
22 31 3 9 9 17 13 17 3 0 4 -7 0 -15z m219 -15 c3 -6 -4 -10 -17 -10 -18 0
-20 2 -8 10 19 12 18 12 25 0z m195 -10 c0 -5 -5 -10 -11 -10 -5 0 -7 5 -4 10
3 6 8 10 11 10 2 0 4 -4 4 -10z m-36 -12 c-3 -4 -10 -8 -16 -8 -6 0 -17 -8
-25 -17 -8 -10 -12 -12 -8 -5 3 6 1 12 -4 12 -6 0 -11 -7 -11 -16 0 -8 -5 -12
-10 -9 -6 4 -8 11 -5 16 4 5 -3 9 -15 9 -12 0 -18 4 -15 11 4 6 13 8 19 6 7
-3 18 -2 25 2 16 10 71 10 65 -1z m-444 -8 c0 -5 -4 -10 -10 -10 -5 0 -10 5
-10 10 0 6 5 10 10 10 6 0 10 -4 10 -10z m-1141 -36 c-5 -7 -18 -14 -29 -17
-16 -4 -18 -2 -10 13 6 10 19 18 30 17 13 -1 16 -5 9 -13z m1411 -14 c0 -5 -9
-10 -19 -10 -11 0 -26 -3 -35 -6 -9 -3 -16 -1 -16 4 0 11 21 19 53 21 9 0 17
-3 17 -9z m37 4 c-3 -3 -12 -4 -19 -1 -8 3 -5 6 6 6 11 1 17 -2 13 -5z m-242
-14 c-3 -5 -10 -10 -16 -10 -5 0 -9 5 -9 10 0 6 7 10 16 10 8 0 12 -4 9 -10z
m-95 -20 c0 -5 -7 -10 -16 -10 -8 0 -12 5 -9 10 3 6 10 10 16 10 5 0 9 -4 9
-10z m-1412 -132 c-2 -6 -10 -14 -16 -16 -7 -2 -10 2 -6 12 7 18 28 22 22 4z
m-48 -33 c0 -8 -4 -15 -9 -15 -5 0 -30 -19 -56 -42 -73 -66 -86 -68 -22 -3 31
32 57 62 57 67 0 4 7 8 15 8 8 0 15 -7 15 -15z m2114 -34 c7 -11 -32 -56 -41
-47 -5 4 0 12 10 17 9 6 17 17 17 24 0 17 6 19 14 6z m-54 -67 c0 -8 -4 -13
-9 -10 -5 4 -12 0 -14 -6 -4 -8 -6 -7 -6 4 -1 14 6 21 27 27 1 1 2 -6 2 -15z
m514 -328 c-3 -9 -10 -16 -14 -16 -5 0 -11 -13 -15 -30 -7 -32 -88 -120 -110
-120 -9 0 -12 6 -9 15 4 8 10 15 14 15 13 0 90 82 85 90 -4 7 47 71 53 65 1
-1 0 -10 -4 -19z m-2294 -96 c-6 -13 -19 -138 -24 -224 -1 -19 -8 -31 -22 -37
-18 -6 -21 -4 -17 11 3 10 0 21 -6 24 -17 11 -13 26 8 26 21 0 31 19 31 60 0
16 -5 27 -12 26 -19 -2 -21 11 -13 84 5 50 12 69 28 82 21 17 22 16 28 -10 3
-15 2 -34 -1 -42z m2000 10 c0 -5 -5 -10 -11 -10 -5 0 -7 5 -4 10 3 6 8 10 11
10 2 0 4 -4 4 -10z m-110 -10 c0 -5 -4 -10 -10 -10 -5 0 -10 5 -10 10 0 6 5
10 10 10 6 0 10 -4 10 -10z m901 -13 c-10 -9 -11 -8 -5 6 3 10 9 15 12 12 3
-3 0 -11 -7 -18z m-381 -3 c0 -16 -43 -74 -51 -68 -5 3 -9 0 -9 -6 0 -16 -55
-70 -71 -70 -10 1 -8 4 4 11 9 6 15 14 12 20 -4 5 -1 9 4 9 6 0 27 25 47 55
20 30 43 55 50 55 8 0 14 -3 14 -6z m-360 -44 c0 -5 -9 -14 -20 -20 -22 -12
-27 -1 -8 18 14 14 28 16 28 2z m367 -15 c-4 -8 -11 -15 -17 -15 -14 0 -13 27
3 33 16 6 21 1 14 -18z m-507 -10 c0 -8 -4 -15 -10 -15 -5 0 -7 7 -4 15 4 8 8
15 10 15 2 0 4 -7 4 -15z m454 -47 c-8 -15 -21 -28 -29 -28 -12 0 -11 5 2 28
9 16 22 29 29 29 10 0 9 -7 -2 -29z m-290 -40 c-22 -22 -40 -34 -43 -27 -2 6
4 16 12 21 10 5 14 15 10 25 -4 10 -2 14 5 9 6 -3 17 0 24 8 7 8 17 12 21 9 5
-3 -8 -23 -29 -45z m636 42 c0 -5 -5 -10 -11 -10 -5 0 -7 5 -4 10 3 6 8 10 11
10 2 0 4 -4 4 -10z m-1130 -25 c-7 -8 -17 -15 -23 -15 -6 0 -2 7 9 15 25 19
30 19 14 0z m-1637 -10 c4 -8 2 -17 -3 -20 -6 -4 -10 3 -10 14 0 25 6 27 13 6z
m1367 -5 c0 -5 -2 -10 -4 -10 -3 0 -8 5 -11 10 -3 6 -1 10 4 10 6 0 11 -4 11
-10z m-20 -15 c0 -2 -10 -9 -22 -15 -22 -11 -22 -10 -4 4 21 17 26 19 26 11z
m1670 -5 c0 -5 -5 -10 -11 -10 -5 0 -7 5 -4 10 3 6 8 10 11 10 2 0 4 -4 4 -10z
m-1050 -14 c0 -3 -4 -8 -10 -11 -5 -3 -10 -1 -10 4 0 6 5 11 10 11 6 0 10 -2
10 -4z m322 -18 c-7 -7 -12 -8 -12 -2 0 14 12 26 19 19 2 -3 -1 -11 -7 -17z
m428 18 c0 -3 -4 -8 -10 -11 -5 -3 -10 -1 -10 4 0 6 5 11 10 11 6 0 10 -2 10
-4z m-698 -77 c-18 -16 -32 -34 -32 -40 0 -5 -6 -9 -14 -9 -29 0 -10 41 29 64
51 29 58 23 17 -15z m218 6 c-7 -8 -17 -12 -23 -8 -6 4 -3 11 8 19 23 17 32
10 15 -11z m39 -2 c-48 -53 -59 -63 -69 -63 -5 0 -7 7 -4 15 4 8 1 15 -6 15
-6 0 -8 5 -4 11 5 8 8 8 14 0 4 -8 19 -2 45 19 47 37 56 39 24 3z m-2249 -8
c0 -8 -4 -15 -10 -15 -5 0 -10 7 -10 15 0 8 5 15 10 15 6 0 10 -7 10 -15z
m1280 5 c0 -5 -5 -10 -11 -10 -5 0 -7 5 -4 10 3 6 8 10 11 10 2 0 4 -4 4 -10z
m-80 -10 c0 -3 -14 -14 -31 -24 -31 -18 -32 -10 -5 20 11 11 36 15 36 4z m388
-25 c-11 -24 -13 -25 -19 -8 -4 11 0 22 10 30 22 16 24 10 9 -22z m1232 25 c0
-5 -4 -10 -10 -10 -5 0 -10 5 -10 10 0 6 5 10 10 10 6 0 10 -4 10 -10z m-180
-20 c-6 -11 -13 -20 -16 -20 -2 0 0 9 6 20 6 11 13 20 16 20 2 0 0 -9 -6 -20z
m-1665 1 c3 -5 1 -12 -5 -16 -5 -3 -10 1 -10 9 0 18 6 21 15 7z m832 -28 c-14
-48 -14 -48 -32 -33 -16 13 -20 6 -16 -30 2 -13 0 -13 -8 -1 -7 11 -14 10 -40
-8 -17 -12 -31 -20 -31 -18 0 8 71 77 79 77 5 0 16 11 25 25 24 37 36 30 23
-12z m550 -12 c-14 -14 -40 -41 -57 -59 -18 -18 -35 -31 -38 -28 -3 3 4 14 15
23 11 10 18 24 16 31 -3 6 0 12 5 12 5 0 12 10 15 21 4 15 11 20 21 16 10 -4
21 1 29 13 7 12 14 15 16 9 2 -6 -8 -23 -22 -38z m238 29 c-3 -5 -11 -10 -16
-10 -6 0 -7 5 -4 10 3 6 11 10 16 10 6 0 7 -4 4 -10z m-2608 -52 c-3 -29 -9
-84 -13 -121 -7 -73 -19 -94 -26 -47 -3 17 -2 30 2 30 4 0 11 34 16 75 5 41 6
75 2 75 -5 0 -4 9 2 20 18 33 23 23 17 -32z m1233 48 c0 -3 -4 -8 -10 -11 -5
-3 -10 -1 -10 4 0 6 5 11 10 11 6 0 10 -2 10 -4z m96 -16 c0 -21 -11 -26 -21
-10 -7 11 2 30 13 30 4 0 8 -9 8 -20z m244 -2 c0 -12 -3 -18 -7 -15 -3 4 -13
-2 -21 -14 -8 -11 -20 -18 -28 -15 -13 5 -18 -5 -15 -31 1 -7 -4 -13 -12 -13
-8 0 -26 -9 -41 -21 -24 -19 -46 -19 -46 1 0 9 40 25 53 22 5 -1 6 1 3 6 -6
11 49 63 58 55 3 -4 6 0 6 7 0 13 28 39 43 40 4 0 7 -10 7 -22z m-172 -2 c-7
-8 -15 -12 -17 -11 -5 6 10 25 20 25 5 0 4 -6 -3 -14z m-80 -70 c-30 -28 -72
-64 -94 -81 l-39 -30 23 30 c13 16 47 49 75 73 29 25 56 51 60 58 5 8 13 11
19 8 6 -4 -12 -28 -44 -58z m322 43 c-6 -11 -16 -19 -21 -17 -13 4 -12 23 0
23 5 0 13 3 17 8 13 13 15 7 4 -14z m268 2 c-7 -11 -16 -18 -20 -15 -4 3 -2
11 5 19 18 21 29 18 15 -4z m179 -84 c-93 -94 -189 -181 -256 -232 -14 -11
-50 -45 -81 -75 -30 -31 -71 -65 -91 -78 -51 -31 -91 -73 -85 -89 3 -7 0 -14
-7 -14 -7 -1 -17 -2 -24 -3 -7 0 -18 -9 -25 -18 -7 -9 -24 -23 -38 -30 -62
-33 -168 -120 -165 -136 1 -9 0 -11 -2 -4 -3 6 -7 12 -9 12 -12 0 -172 -129
-167 -134 4 -3 -1 -6 -10 -6 -9 0 -37 -14 -63 -32 -46 -31 -94 -45 -94 -28 0
5 5 12 10 15 6 4 8 14 5 23 -3 11 3 22 15 30 17 10 20 10 20 -3 0 -8 2 -15 5
-15 14 0 114 84 109 92 -3 5 4 20 16 33 12 13 19 28 16 33 -3 5 5 10 19 10 21
0 22 -2 9 -15 -8 -9 -12 -18 -9 -21 3 -4 10 0 14 7 5 7 13 11 19 7 6 -3 14 -1
18 5 4 8 3 9 -4 5 -21 -13 -13 12 10 34 20 18 24 19 34 6 10 -14 13 -14 28 3
9 10 14 25 11 33 -3 8 1 21 10 28 18 15 21 0 3 -18 -18 -18 -1 -14 22 5 22 19
28 39 8 27 -9 -5 -9 -3 1 9 7 9 17 14 22 11 5 -3 9 1 10 8 1 7 4 3 7 -10 l7
-23 22 20 c12 12 25 21 28 21 11 0 35 28 35 40 0 6 -5 8 -11 4 -7 -4 -10 -1
-7 7 3 8 11 13 17 12 6 -2 11 3 11 10 0 9 3 8 9 -2 5 -7 14 -10 20 -6 9 5 7
10 -5 19 -16 12 -16 13 0 19 11 5 15 3 10 -5 -11 -17 54 -2 73 18 13 13 14 17
3 24 -11 7 -10 13 4 34 9 14 23 26 31 26 22 0 18 -18 -5 -25 -18 -6 -29 -35
-13 -35 16 0 43 35 43 57 0 12 5 23 11 23 5 0 7 -4 4 -10 -3 -5 -2 -10 4 -10
15 0 23 18 11 25 -14 9 17 45 37 45 8 0 12 4 9 9 -3 5 2 15 11 22 14 12 15 11
8 -11 -4 -14 -15 -30 -23 -36 -9 -7 -11 -13 -5 -17 11 -7 117 82 109 91 -3 3
-11 0 -18 -6 -10 -8 -13 -4 -15 18 -2 22 3 29 22 33 19 3 25 0 25 -14 0 -31
15 -22 92 51 57 55 72 76 70 95 -3 20 0 23 18 20 11 -2 18 0 15 5 -3 5 -1 11
4 15 6 3 8 12 4 20 -3 8 0 15 5 15 6 0 9 -9 7 -20 -5 -28 6 -25 45 14 19 18
43 34 52 35 9 0 -28 -44 -85 -102z m-1003 68 c-40 -32 -57 -36 -25 -6 19 17
37 29 40 26 2 -3 -4 -12 -15 -20z m-1487 -7 c-3 -8 -6 -5 -6 6 -1 11 2 17 5
13 3 -3 4 -12 1 -19z m3043 8 c0 -2 -8 -10 -17 -17 -16 -13 -17 -12 -4 4 13
16 21 21 21 13z m-787 -36 c-18 -17 -36 -36 -40 -43 -4 -6 -15 -16 -24 -22
-16 -10 -188 -156 -219 -186 -9 -8 -24 -18 -33 -22 -9 -3 -17 -14 -17 -23 0
-10 -3 -15 -6 -11 -3 3 -11 2 -18 -3 -6 -5 -49 -39 -96 -76 -105 -84 -143
-121 -135 -134 3 -5 0 -7 -7 -5 -15 6 -139 -73 -145 -91 -2 -6 8 -14 22 -16
14 -3 25 -1 25 3 0 5 5 9 10 9 31 0 -15 -69 -46 -70 -15 0 -55 -36 -48 -42 2
-3 -7 -8 -21 -10 -39 -8 -31 22 16 57 23 17 35 31 28 34 -7 2 -15 -1 -17 -7
-2 -6 -9 -9 -17 -6 -13 5 -55 -12 -65 -26 -8 -12 -148 -100 -159 -100 -5 0
-18 -10 -28 -23 -10 -13 -22 -25 -28 -26 -26 -7 -45 -23 -45 -37 0 -8 -4 -12
-10 -9 -14 9 -52 -14 -44 -27 4 -6 3 -9 -2 -6 -5 3 -18 2 -29 -2 -13 -5 -24
-2 -33 9 -11 14 -11 14 -5 -3 4 -13 3 -17 -5 -12 -17 11 -10 44 9 39 22 -6 51
25 44 47 -3 10 1 25 9 33 9 9 13 24 9 38 -3 13 -2 21 2 17 4 -4 16 4 27 17 11
14 25 22 31 19 9 -5 9 -4 0 6 -8 9 -7 17 5 31 17 20 38 27 27 9 -3 -5 0 -7 9
-4 21 8 26 30 11 50 -11 16 -10 20 4 31 9 7 21 12 26 12 6 0 2 -6 -8 -13 -15
-12 -16 -18 -8 -35 6 -11 19 -25 29 -31 12 -8 13 -13 5 -16 -7 -3 -13 -19 -13
-34 0 -31 -14 -47 -26 -29 -3 6 0 15 7 20 9 6 10 9 2 9 -6 0 -18 -7 -27 -15
-8 -8 -23 -15 -33 -16 -10 0 -13 -3 -5 -6 6 -2 12 -12 13 -21 0 -12 3 -10 9 6
13 32 30 27 31 -10 1 -24 3 -27 6 -10 2 12 10 22 16 22 13 0 77 54 77 64 0 11
-19 6 -34 -10 -15 -14 -16 -14 -13 6 2 12 10 26 18 31 11 7 10 9 -4 9 -12 0
-17 6 -15 18 2 9 8 17 13 17 20 0 91 39 138 77 42 33 46 44 15 39 -10 -1 -10
3 -2 23 3 9 16 16 28 16 17 0 18 -2 6 -11 -12 -8 -11 -9 5 -7 15 3 19 10 17
28 -4 21 -2 22 12 11 9 -8 19 -11 23 -7 3 3 1 6 -5 6 -17 0 -15 25 3 40 8 7
15 18 14 24 -3 23 1 36 11 36 6 0 8 -10 4 -24 -5 -21 -3 -24 15 -19 12 3 21
12 21 20 0 8 5 11 10 8 6 -3 10 1 10 10 0 12 4 14 19 5 14 -7 20 -7 23 1 2 6
21 13 42 14 36 3 37 3 21 -15 -10 -11 -15 -25 -12 -32 2 -7 -2 -19 -9 -26 -8
-7 -14 -9 -14 -4 0 5 -7 9 -15 9 -8 0 -15 -4 -15 -9 0 -4 5 -8 11 -8 5 0 7 -5
4 -10 -5 -8 -11 -7 -21 1 -11 9 -14 9 -14 -1 0 -8 -3 -10 -6 -7 -10 10 -65
-33 -58 -44 3 -6 -4 -13 -15 -16 -17 -4 -19 -8 -10 -19 6 -8 8 -14 3 -15 -5 0
-26 -2 -47 -4 -26 -2 -43 -10 -53 -24 -8 -11 -20 -21 -25 -21 -20 0 -69 -44
-58 -51 8 -4 4 -9 -9 -13 -12 -4 -20 -15 -19 -26 2 -25 1 -26 54 10 24 17 48
30 54 30 5 0 12 7 15 15 7 18 100 76 108 68 3 -4 6 1 6 9 0 9 7 18 15 22 8 3
15 12 15 20 0 9 6 13 14 10 8 -3 23 4 33 16 11 11 27 18 35 15 20 -8 69 32 61
50 -3 10 1 15 11 15 9 0 31 16 47 35 17 20 36 34 43 33 23 -5 116 63 116 85 0
15 54 67 70 67 9 0 24 13 33 30 12 20 25 29 39 27 14 -1 22 4 24 18 1 11 11
25 21 32 10 7 31 24 46 38 15 14 32 23 37 20 6 -3 20 3 32 14 12 12 27 21 32
21 6 0 -3 -14 -21 -30z m572 14 c-13 -14 -19 -14 -28 -4 -9 10 -9 11 1 6 6 -4
12 -2 12 3 0 6 7 11 16 11 14 0 14 -2 -1 -16z m-815 -4 c0 -5 -7 -10 -16 -10
-8 0 -12 5 -9 10 3 6 10 10 16 10 5 0 9 -4 9 -10z m-602 -45 c-6 -28 -6 -27
16 -19 9 3 16 12 16 18 0 7 6 13 14 13 11 0 9 -7 -7 -28 -26 -33 -47 -43 -60
-30 -7 7 -6 15 1 24 7 8 9 17 6 20 -3 3 -3 10 1 16 11 19 17 12 13 -14z m1529
-2 c-3 -3 -11 -2 -17 2 -9 6 -9 10 1 16 14 8 27 -7 16 -18z m-2950 -5 c-3 -8
-6 -5 -6 6 -1 11 2 17 5 13 3 -3 4 -12 1 -19z m2627 -43 c-55 -51 -74 -64 -74
-49 0 12 58 63 64 57 3 -3 9 3 13 13 8 22 22 34 41 34 8 0 -12 -25 -44 -55z
m-807 28 c2 -6 -5 -14 -16 -18 -12 -3 -21 -10 -21 -16 0 -14 -33 -48 -42 -43
-4 3 -8 1 -8 -4 0 -6 -13 -15 -30 -21 -17 -5 -30 -17 -30 -26 0 -9 -4 -13 -10
-10 -5 3 -10 1 -10 -4 0 -15 -37 -51 -44 -43 -4 3 -12 -2 -19 -12 -7 -10 -25
-19 -39 -19 -15 -1 -24 -7 -21 -13 2 -7 -1 -15 -6 -19 -6 -3 -9 -10 -7 -14 3
-4 -6 -8 -20 -9 -20 -1 -24 3 -24 24 0 15 5 24 12 22 6 -2 20 4 31 15 10 10
24 16 31 14 7 -3 21 8 30 24 9 16 25 29 35 29 10 0 21 9 24 20 3 11 12 20 21
20 9 0 38 23 64 50 26 28 53 50 60 50 7 0 12 5 12 11 0 13 22 7 27 -8z m118 7
c3 -5 1 -10 -4 -10 -6 0 -11 5 -11 10 0 6 2 10 4 10 3 0 8 -4 11 -10z m823
-18 c-10 -2 -18 -10 -18 -18 0 -8 -7 -14 -15 -14 -8 0 -15 5 -15 11 0 5 5 7
10 4 6 -3 10 3 10 13 0 16 5 19 23 14 18 -5 19 -7 5 -10z m-2766 -14 c-7 -7
-12 -8 -12 -2 0 6 3 14 7 17 3 4 9 5 12 2 2 -3 -1 -11 -7 -17z m1999 -27 c-17
-15 -31 -31 -31 -37 0 -5 -13 -18 -30 -27 -27 -16 -46 -8 -19 8 5 4 8 12 6 18
-5 15 17 37 36 37 8 0 22 9 32 20 10 11 22 17 27 13 6 -3 -4 -17 -21 -32z
m-431 -22 c-19 -16 -52 -41 -72 -55 -21 -13 -38 -29 -38 -34 0 -6 -6 -10 -14
-10 -8 0 -21 -7 -30 -15 -9 -10 -17 -11 -21 -5 -3 6 2 13 12 17 10 3 22 12 26
19 4 8 23 21 42 30 19 9 35 23 35 30 0 8 7 14 16 14 9 0 27 9 41 20 40 31 42
23 3 -11z m1148 -4 c-1 -10 -10 -19 -18 -21 -8 -1 -24 -6 -34 -10 -19 -7 -19
-7 0 18 10 14 22 24 27 21 4 -2 7 4 7 13 0 13 3 15 11 7 6 -6 9 -19 7 -28z
m52 9 c0 -2 -9 -4 -21 -4 -11 0 -18 4 -14 10 5 8 35 3 35 -6z m-553 0 c-3 -3
-12 -4 -19 -1 -8 3 -5 6 6 6 11 1 17 -2 13 -5z m584 -25 c-25 -20 -42 -21 -48
-2 -2 6 7 8 23 5 19 -3 25 -1 20 7 -4 7 0 11 11 11 15 -1 15 -3 -6 -21z m-616
1 c3 -5 1 -10 -4 -10 -6 0 -11 5 -11 10 0 6 2 10 4 10 3 0 8 -4 11 -10z m-365
-10 c0 -5 -2 -10 -4 -10 -3 0 -8 5 -11 10 -3 6 -1 10 4 10 6 0 11 -4 11 -10z
m-1434 -27 c-10 -10 -19 5 -10 18 6 11 8 11 12 0 2 -7 1 -15 -2 -18z m1049 17
c3 -5 1 -10 -4 -10 -6 0 -11 5 -11 10 0 6 2 10 4 10 3 0 8 -4 11 -10z m-1045
-40 c0 -5 -4 -10 -10 -10 -5 0 -10 5 -10 10 0 6 5 10 10 10 6 0 10 -4 10 -10z
m1833 -18 c-6 -24 -23 -30 -23 -9 0 13 21 39 26 34 2 -2 1 -13 -3 -25z m377
-4 c0 -16 -3 -19 -11 -11 -6 6 -8 16 -5 22 11 17 16 13 16 -11z m-760 -18 c0
-5 -5 -10 -11 -10 -5 0 -7 5 -4 10 3 6 8 10 11 10 2 0 4 -4 4 -10z m723 -7
c-14 -5 -19 -25 -5 -20 4 1 8 -1 10 -5 5 -18 1 -28 -13 -28 -8 0 -15 2 -15 4
0 2 -3 11 -6 19 -6 16 25 52 35 41 3 -4 0 -9 -6 -11z m-2191 -38 c0 -20 -6
-42 -12 -48 -10 -10 -11 -5 -6 22 3 18 6 43 6 54 0 11 3 18 6 14 3 -3 6 -22 6
-42z m995 13 c-3 -8 -6 -5 -6 6 -1 11 2 17 5 13 3 -3 4 -12 1 -19z m318 12 c3
-5 -1 -10 -10 -10 -9 0 -13 5 -10 10 3 6 8 10 10 10 2 0 7 -4 10 -10z m405 6
c0 -3 -4 -8 -10 -11 -5 -3 -10 -1 -10 4 0 6 5 11 10 11 6 0 10 -2 10 -4z
m-414 -33 c-2 -2 -11 -5 -19 -7 -8 -1 -22 -8 -30 -14 -11 -9 -17 -10 -22 -2
-4 7 2 14 14 17 12 3 21 9 21 13 0 5 9 6 20 3 12 -3 19 -8 16 -10z m840 -28
c-6 -32 -9 -35 -24 -23 -13 11 -14 11 -8 0 5 -9 1 -15 -13 -19 -19 -5 -26 -20
-22 -50 2 -16 -4 -16 -30 -2 -23 12 -54 -5 -42 -24 3 -6 1 -7 -5 -3 -7 4 -12
1 -12 -9 0 -9 -4 -13 -10 -10 -5 3 -10 10 -10 15 0 14 71 80 86 80 8 0 14 7
14 15 0 8 11 17 24 21 17 4 23 11 19 22 -4 9 -2 13 4 9 6 -4 14 0 17 9 11 28
19 7 12 -31z m-1060 -24 c-4 -5 -1 -11 6 -13 7 -3 -2 -11 -19 -18 -26 -12 -30
-17 -20 -29 9 -11 9 -13 0 -8 -7 4 -18 -2 -26 -14 -10 -13 -17 -17 -22 -9 -4
6 -16 8 -28 4 -18 -5 -14 2 16 33 20 21 37 43 37 49 0 5 14 11 31 12 17 1 28
-2 25 -7z m44 -51 c0 -5 -2 -10 -4 -10 -3 0 -8 5 -11 10 -3 6 -1 10 4 10 6 0
11 -4 11 -10z m240 -14 c0 -2 -7 -9 -15 -16 -12 -10 -15 -10 -15 4 0 9 7 16
15 16 8 0 15 -2 15 -4z m-310 -45 c0 -5 -16 -19 -35 -31 -19 -12 -35 -29 -36
-38 0 -10 -3 -12 -5 -5 -3 7 -13 9 -22 7 -9 -3 -1 8 18 24 19 17 38 28 41 26
4 -2 12 3 19 11 14 17 20 19 20 6z m-680 -31 c0 -4 -6 -10 -14 -13 -10 -4 -12
0 -9 14 5 18 23 18 23 -1z m1126 -20 c0 -20 -7 -25 -19 -13 -4 3 -2 12 4 20
15 17 15 17 15 -7z m-666 -20 c0 -5 -4 -10 -10 -10 -5 0 -10 5 -10 10 0 6 5
10 10 10 6 0 10 -4 10 -10z m210 0 c12 -8 9 -10 -12 -10 -16 0 -28 5 -28 10 0
13 20 13 40 0z m620 0 c0 -5 -4 -10 -10 -10 -5 0 -10 5 -10 10 0 6 5 10 10 10
6 0 10 -4 10 -10z m-305 -10 c3 -5 -1 -10 -10 -10 -9 0 -13 5 -10 10 3 6 8 10
10 10 2 0 7 -4 10 -10z m255 -26 c0 -8 -33 -34 -43 -34 -7 0 -4 7 5 14 10 7
16 15 13 18 -3 2 2 5 10 5 8 0 15 -2 15 -3z m-1258 -40 c-3 -15 -8 -22 -14
-16 -9 9 -1 42 12 42 4 0 5 -12 2 -26z m145 4 c-3 -8 -6 -5 -6 6 -1 11 2 17 5
13 3 -3 4 -12 1 -19z m437 4 c3 -5 -1 -9 -9 -9 -8 0 -12 4 -9 9 3 4 7 8 9 8 2
0 6 -4 9 -8z m320 -17 c-4 -8 -11 -12 -16 -9 -6 4 -5 10 3 15 19 12 19 11 13
-6z m169 -105 c-32 -35 -30 -34 -39 -17 -4 6 -4 9 1 5 4 -4 16 4 27 17 11 14
24 25 30 25 5 0 -3 -13 -19 -30z m-1082 3 c0 -10 2 -25 4 -33 1 -10 -6 -16
-21 -16 -20 -2 -24 2 -21 20 5 42 36 65 38 29z m716 -39 c2 -5 -6 -15 -17 -22
-17 -10 -20 -10 -20 3 0 8 5 15 11 15 5 0 7 5 3 11 -4 7 -1 10 6 7 8 -2 15 -9
17 -14z m313 2 c0 -3 -4 -8 -10 -11 -5 -3 -10 -1 -10 4 0 6 5 11 10 11 6 0 10
-2 10 -4z m-1480 -96 c-10 -23 -10 -22 -5 9 3 18 6 43 7 55 1 12 3 9 5 -9 2
-17 -1 -42 -7 -55z m1221 70 c27 15 24 2 -7 -26 -31 -29 -38 -30 -24 -4 8 14
8 20 0 20 -6 0 -8 5 -4 12 6 9 9 9 12 0 2 -8 9 -9 23 -2z m-791 -48 c-3 -26
-9 -53 -13 -60 -5 -7 -3 -12 3 -12 8 0 10 -9 6 -25 -4 -14 -1 -29 7 -36 11
-11 11 -16 -2 -31 -16 -19 -23 -68 -9 -68 4 0 8 -11 8 -24 0 -30 -36 -72 -68
-81 -22 -6 -23 -4 -21 27 2 22 -1 32 -9 31 -7 -2 -12 7 -12 19 0 12 3 18 7 15
7 -7 36 30 39 50 1 7 -5 17 -14 23 -14 8 -14 9 -2 10 19 0 50 73 39 91 -4 7
-3 21 2 31 7 13 6 18 -3 19 -10 0 -10 2 0 6 6 2 12 10 12 16 0 8 28 47 35 47
1 0 -1 -21 -5 -48z m976 -8 c1 -9 0 -13 -4 -10 -3 4 -7 14 -8 22 -1 9 0 13 4
10 3 -4 7 -14 8 -22z m-1415 -71 c-8 -15 -10 -15 -11 -2 0 17 10 32 18 25 2
-3 -1 -13 -7 -23z m569 -37 c-14 -14 -19 -5 -13 28 6 30 6 30 15 6 5 -14 5
-27 -2 -34z m550 18 c0 -19 -4 -25 -15 -20 -9 3 -19 -3 -25 -14 -14 -27 -34
-25 -54 5 -14 21 -14 24 -1 18 9 -3 15 -2 14 3 -4 21 2 26 16 14 12 -10 19 -9
37 3 13 9 24 16 26 16 1 1 2 -11 2 -25z m-650 -4 c0 -5 -5 -10 -11 -10 -5 0
-7 5 -4 10 3 6 8 10 11 10 2 0 4 -4 4 -10z m442 -12 c-7 -7 -12 -8 -12 -2 0 6
3 14 7 17 3 4 9 5 12 2 2 -3 -1 -11 -7 -17z m348 2 c-8 -5 -17 -7 -19 -4 -3 3
1 9 9 14 8 5 17 7 19 4 3 -3 -1 -9 -9 -14z m-1034 -67 c-2 -3 -9 -2 -15 1 -7
5 -6 16 2 34 l12 27 3 -29 c2 -15 1 -30 -2 -33z m424 30 c0 -5 -11 -8 -24 -8
-13 0 -22 3 -19 8 2 4 13 7 24 7 10 0 19 -3 19 -7z m-100 -74 l-21 -34 7 40
c4 22 12 43 18 47 20 13 17 -19 -4 -53z m-259 4 c-9 -15 -10 -14 -7 7 6 35 7
37 12 23 3 -7 1 -20 -5 -30z m-73 -27 c-6 -14 -7 -33 -3 -43 9 -21 8 -36 -8
-72 -6 -14 -11 -30 -12 -36 0 -5 -4 -16 -8 -22 -5 -7 -5 -18 -2 -23 4 -6 1
-17 -5 -25 -7 -8 -9 -15 -5 -15 4 0 2 -6 -4 -14 -6 -8 -12 -35 -13 -60 -1 -45
-1 -46 -19 -30 -17 15 -17 19 -5 33 11 12 14 36 13 79 -1 34 1 62 4 62 4 0 9
7 13 15 4 13 2 14 -14 5 -17 -9 -20 -8 -20 10 0 11 6 23 14 26 9 3 12 12 9 21
-4 11 -2 14 5 9 8 -5 12 2 12 19 0 15 4 24 10 20 6 -3 10 1 10 10 0 18 22 55
32 55 4 0 3 -11 -4 -24z m82 -25 c0 -6 -5 -13 -10 -16 -6 -4 -8 -10 -6 -14 3
-4 -2 -30 -10 -57 -8 -27 -13 -56 -12 -64 3 -21 -11 -60 -22 -60 -8 0 -6 33 5
70 3 8 7 33 10 55 11 77 17 95 31 95 8 0 14 -4 14 -9z m910 -41 c0 -5 -2 -10
-4 -10 -3 0 -8 5 -11 10 -3 6 -1 10 4 10 6 0 11 -4 11 -10z m-1090 -20 c0 -5
-2 -10 -4 -10 -3 0 -8 5 -11 10 -3 6 -1 10 4 10 6 0 11 -4 11 -10z m-10 -41
c0 -5 -5 -9 -12 -9 -6 0 -8 3 -5 7 4 3 1 13 -6 22 -11 14 -10 14 6 2 9 -7 17
-17 17 -22z m210 21 c0 -5 -5 -10 -11 -10 -5 0 -7 5 -4 10 3 6 8 10 11 10 2 0
4 -4 4 -10z m59 -9 c12 -8 12 -16 1 -54 -15 -49 -47 -78 -61 -55 -5 7 -7 24
-4 37 6 22 5 22 -11 7 -21 -21 -24 -18 -17 17 3 16 16 34 32 42 31 17 41 18
60 6z m-134 -11 c-3 -5 -10 -10 -16 -10 -5 0 -9 5 -9 10 0 6 7 10 16 10 8 0
12 -4 9 -10z m-159 -77 c0 -10 -7 -24 -13 -31 -7 -7 -13 -22 -13 -32 0 -17 4
-18 26 -9 15 5 29 8 31 5 9 -8 -18 -46 -32 -46 -8 0 -15 -9 -15 -21 0 -11 -4
-18 -9 -14 -9 5 -21 -20 -27 -54 -2 -7 -8 -19 -14 -25 -8 -8 -9 -6 -5 7 5 11
2 17 -8 17 -16 0 -47 41 -47 62 0 10 2 10 8 1 8 -13 26 -5 29 14 2 7 -3 10
-11 7 -7 -3 -16 2 -19 10 -8 20 41 52 56 37 19 -19 30 -12 25 14 -3 14 -1 25
3 25 5 0 11 11 15 25 7 28 22 34 20 8z m1310 -54 c4 -8 1 -8 -14 0 -12 6 -24
16 -28 22 -4 8 -1 8 14 0 12 -6 24 -16 28 -22z m-1026 -151 c0 -6 -11 -1 -25
12 -14 13 -25 29 -25 37 0 7 -4 13 -10 13 -5 0 -10 9 -10 21 0 16 8 11 35 -25
19 -26 35 -51 35 -58z m-276 57 c3 -8 1 -15 -4 -15 -6 0 -10 7 -10 15 0 8 2
15 4 15 2 0 6 -7 10 -15z m-131 -65 c-8 -29 -21 -25 -15 5 2 14 8 23 12 20 5
-3 6 -14 3 -25z m27 -22 c0 -18 -2 -20 -9 -8 -6 8 -7 18 -5 22 9 14 14 9 14
-14z m404 -4 c3 -8 2 -12 -4 -9 -6 3 -10 10 -10 16 0 14 7 11 14 -7z m54 -65
c13 -16 19 -29 13 -29 -5 0 -19 14 -31 30 -28 39 -12 38 18 -1z m-994 -5 c3
-8 2 -12 -4 -9 -6 3 -10 -2 -10 -11 0 -10 -3 -15 -6 -11 -6 5 4 47 11 47 1 0
6 -7 9 -16z m543 -66 c-3 -7 -5 -2 -5 12 0 14 2 19 5 13 2 -7 2 -19 0 -25z
m543 -33 c8 -11 -3 -4 -23 14 -20 19 -37 39 -37 44 0 10 36 -25 60 -58z
m-1121 1 c-9 -8 -10 -7 -5 7 3 10 7 24 7 30 1 7 3 4 6 -7 3 -10 -1 -23 -8 -30z
m491 -43 c-1 -18 -18 -35 -24 -24 -4 6 -2 11 4 11 6 0 8 5 5 10 -3 6 -1 10 4
10 6 0 11 -3 11 -7z m-21 -65 c-1 -1 3 -13 10 -25 10 -19 9 -23 -4 -23 -9 0
-13 -4 -10 -10 3 -5 1 -10 -4 -10 -6 0 -11 11 -11 24 0 28 10 59 17 52 3 -2 4
-6 2 -8z m11 -88 c-6 -11 -15 -18 -20 -15 -4 3 -10 -1 -13 -7 -2 -7 -7 -10
-11 -7 -11 10 6 40 20 35 7 -3 16 -1 19 4 12 19 16 10 5 -10z m911 -77 c13
-16 12 -17 -3 -4 -17 13 -22 21 -14 21 2 0 10 -8 17 -17z m-591 -63 c39 -50
157 -164 175 -169 6 -2 9 -7 7 -12 -1 -5 5 -12 13 -15 8 -4 15 -12 15 -20 0
-14 -16 -4 -55 33 -7 7 -15 9 -19 6 -3 -4 -6 -1 -6 5 0 13 -52 66 -87 89 -13
9 -23 19 -23 23 0 4 -18 26 -40 48 -22 22 -40 45 -40 51 0 18 31 -3 60 -39z
m-897 -60 c-3 -12 -8 -19 -11 -16 -5 6 5 36 12 36 2 0 2 -9 -1 -20z m258 -121
c-5 -13 -10 -19 -10 -12 -1 15 10 45 15 40 3 -2 0 -15 -5 -28z m159 1 c0 -5
-5 -10 -11 -10 -5 0 -7 5 -4 10 3 6 8 10 11 10 2 0 4 -4 4 -10z m842 -185 c81
-83 88 -91 112 -130 14 -22 5 -16 -30 20 -27 28 -49 52 -49 55 0 3 -40 43 -88
90 -48 46 -87 88 -87 93 0 9 52 -37 142 -128z m-1019 93 c-7 -41 -22 -71 -23
-47 0 18 20 79 26 79 2 0 1 -15 -3 -32z m2008 -40 c11 -21 11 -22 -4 -9 -10 7
-17 17 -17 22 0 15 9 10 21 -13z m-81 -23 c7 -9 8 -15 2 -15 -5 0 -12 7 -16
15 -3 8 -4 15 -2 15 2 0 9 -7 16 -15z m141 -14 c-8 -5 -10 -14 -6 -22 6 -11 5
-11 -5 -3 -7 7 -9 21 -5 34 5 17 10 19 18 11 9 -9 8 -14 -2 -20z m-2094 -23
c-3 -8 -6 -5 -6 6 -1 11 2 17 5 13 3 -3 4 -12 1 -19z m1152 -22 c-3 -3 -11 5
-18 17 -13 21 -12 21 5 5 10 -10 16 -20 13 -22z m839 9 c-3 -3 -9 2 -12 12 -6
14 -5 15 5 6 7 -7 10 -15 7 -18z m-2298 -60 c0 -8 -4 -15 -10 -15 -5 0 -7 7
-4 15 4 8 8 15 10 15 2 0 4 -7 4 -15z m2363 -5 c15 -1 62 -49 70 -72 5 -13 2
-17 -13 -15 -23 4 -61 37 -55 47 3 5 1 10 -4 12 -4 1 -11 14 -15 28 -3 14 -3
19 0 13 3 -7 11 -13 17 -13z m-760 -205 c17 -26 15 -25 -21 10 -23 21 -42 43
-42 49 0 13 38 -23 63 -59z m762 55 c3 -5 1 -10 -4 -10 -6 0 -11 5 -11 10 0 6
2 10 4 10 3 0 8 -4 11 -10z m45 -42 c0 -5 7 -16 15 -24 8 -9 15 -22 15 -30 0
-8 -16 3 -35 25 -40 44 -43 51 -15 44 11 -3 20 -10 20 -15z m0 -109 c0 -6 -13
6 -30 24 -16 19 -30 38 -30 42 0 4 14 -7 30 -25 17 -18 30 -36 30 -41z m105
-14 c13 -14 32 -39 40 -55 9 -17 22 -30 30 -30 9 0 21 -11 27 -25 6 -14 17
-25 25 -25 7 0 13 -5 13 -12 0 -6 7 -20 17 -30 13 -14 14 -23 5 -40 -11 -23
-11 -23 -11 3 -1 24 -27 44 -53 40 -5 -1 -7 2 -7 7 4 22 -2 42 -11 37 -5 -3
-10 2 -10 11 0 9 -22 41 -50 70 -27 29 -50 58 -50 63 0 16 7 14 35 -14z m-88
-17 c-3 -8 -6 -5 -6 6 -1 11 2 17 5 13 3 -3 4 -12 1 -19z m43 -27 c0 -4 16
-25 35 -47 24 -27 33 -45 29 -59 -4 -15 -3 -17 4 -6 8 12 16 8 42 -17 17 -18
36 -29 42 -26 7 4 8 2 4 -5 -5 -7 7 -28 28 -51 20 -22 36 -45 36 -50 0 -6 6
-10 14 -10 22 0 27 -29 7 -39 -14 -8 -23 -5 -41 14 -12 13 -20 31 -17 39 6 16
-16 40 -26 29 -4 -3 -7 0 -7 7 0 7 -3 10 -7 7 -8 -9 -53 32 -53 47 0 6 4 5 9
-3 6 -9 11 -10 15 -2 4 6 2 12 -3 12 -21 3 -26 5 -48 19 -13 8 -23 22 -23 32
0 9 -4 20 -10 23 -5 3 -10 15 -10 25 0 12 -9 22 -22 25 -15 4 -23 14 -24 30
-1 16 2 22 12 18 8 -3 14 -8 14 -12z m-645 -119 c-8 -8 -95 85 -95 100 1 7 23
-11 51 -41 27 -29 47 -56 44 -59z m444 13 c8 -11 -3 -3 -23 19 -20 21 -36 43
-36 48 0 9 31 -26 59 -67z m-2182 33 c-3 -8 -6 -5 -6 6 -1 11 2 17 5 13 3 -3
4 -12 1 -19z m2312 -173 c34 -38 61 -72 61 -76 0 -3 21 -28 48 -55 26 -27 79
-85 119 -129 151 -169 160 -181 128 -168 -9 3 -14 7 -11 10 3 4 -41 55 -121
140 -13 13 -23 28 -23 34 0 5 -8 13 -17 16 -21 8 -60 47 -96 96 -16 20 -35 37
-43 37 -7 0 -13 6 -11 13 1 6 -4 11 -11 9 -8 -1 -11 2 -8 7 6 8 -24 49 -71 99
-7 7 -13 19 -13 25 0 7 -9 18 -20 25 -11 7 -20 18 -20 24 0 14 22 -7 109 -107z
m-476 13 c20 -24 59 -68 87 -98 29 -30 60 -66 69 -80 9 -14 26 -33 39 -44 12
-10 47 -48 76 -85 29 -36 91 -105 137 -153 78 -80 101 -106 199 -220 19 -23
57 -64 83 -91 26 -28 52 -58 58 -69 9 -17 7 -17 -29 2 -21 11 -45 33 -53 48
-15 30 -86 102 -100 102 -5 0 -9 4 -9 10 0 5 -25 36 -56 67 -30 32 -62 70 -70
86 -8 15 -19 27 -24 27 -6 0 -10 6 -10 14 0 8 -8 21 -18 28 -10 7 -35 34 -55
61 -20 26 -72 84 -117 128 -44 44 -82 86 -83 92 -3 15 -23 37 -34 37 -10 0
-53 65 -53 80 0 5 -6 10 -13 10 -7 0 -21 16 -30 35 -9 19 -23 35 -32 35 -8 0
-15 5 -15 10 0 20 18 9 53 -32z m-1913 28 c0 -3 -4 -8 -10 -11 -5 -3 -10 -1
-10 4 0 6 5 11 10 11 6 0 10 -2 10 -4z m-36 -31 c-4 -8 -11 -12 -16 -9 -6 4
-5 10 3 15 19 12 19 11 13 -6z m2390 -50 c24 -36 19 -43 -9 -13 -27 29 -30 38
-16 38 5 0 16 -11 25 -25z m388 -42 c21 -18 23 -39 6 -49 -8 -5 -9 -2 -4 11 5
15 4 16 -8 6 -12 -10 -17 -8 -26 9 -10 19 -7 40 7 40 4 0 15 -7 25 -17z m-593
-77 c-3 -3 -11 5 -18 17 -13 21 -12 21 5 5 10 -10 16 -20 13 -22z m31 -31 c14
-19 14 -19 -2 -6 -10 7 -18 18 -18 24 0 6 1 8 3 6 1 -2 9 -13 17 -24z m100
-118 c0 -4 -13 5 -30 20 -16 14 -30 33 -30 42 0 15 59 -45 60 -62z m101 -109
c16 -18 29 -36 29 -41 0 -8 -37 26 -59 56 -23 29 -1 19 30 -15z m649 -8 c-8
-5 -19 -10 -25 -10 -5 0 -3 5 5 10 8 5 20 10 25 10 6 0 3 -5 -5 -10z m-225
-50 c10 -11 16 -20 13 -20 -3 0 -13 9 -23 20 -10 11 -16 20 -13 20 3 0 13 -9
23 -20z m305 -25 c0 -8 8 -15 17 -15 14 0 15 -2 4 -12 -10 -11 -15 -9 -27 6
-16 23 -18 36 -4 36 6 0 10 -7 10 -15z m-630 -36 c0 -4 -7 -6 -15 -3 -8 4 -15
10 -15 15 0 4 7 6 15 3 8 -4 15 -10 15 -15z m708 -54 c-3 -3 -9 2 -12 12 -6
14 -5 15 5 6 7 -7 10 -15 7 -18z m-604 -53 c10 -13 15 -26 11 -30 -4 -4 -10 0
-13 8 -3 8 -20 29 -39 47 -18 17 -33 35 -33 38 0 10 54 -36 74 -63z m636 28
c0 -5 -5 -10 -11 -10 -5 0 -7 5 -4 10 3 6 8 10 11 10 2 0 4 -4 4 -10z m304
-156 c4 -11 2 -12 -14 -1 -11 6 -20 15 -20 19 0 12 28 -3 34 -18z m-739 -189
c22 -20 50 -64 43 -69 -2 -2 -28 27 -57 63 -50 60 -47 62 14 6z m175 -86 c0
-6 -4 -7 -10 -4 -5 3 -10 11 -10 16 0 6 5 7 10 4 6 -3 10 -11 10 -16z m-95 1
c3 -5 2 -10 -4 -10 -5 0 -13 5 -16 10 -3 6 -2 10 4 10 5 0 13 -4 16 -10z m25
-30 c0 -5 -2 -10 -4 -10 -3 0 -8 5 -11 10 -3 6 -1 10 4 10 6 0 11 -4 11 -10z
m124 -29 c-2 -3 -12 3 -22 13 -16 17 -16 18 5 5 12 -7 20 -15 17 -18z m36 -33
c0 -6 -6 -5 -15 2 -8 7 -15 14 -15 16 0 2 7 1 15 -2 8 -4 15 -11 15 -16z m304
-23 c11 -8 17 -17 14 -21 -4 -3 -16 4 -27 15 -24 24 -15 28 13 6z m-14 -97 c0
-16 -20 -7 -30 12 -10 19 -10 20 9 8 12 -7 21 -16 21 -20z m44 16 c3 -8 2 -12
-4 -9 -6 3 -10 10 -10 16 0 14 7 11 14 -7z"/>
<path d="M5055 6490 c-3 -5 1 -10 9 -10 9 0 16 5 16 10 0 6 -4 10 -9 10 -6 0
-13 -4 -16 -10z"/>
<path d="M4980 6366 c0 -2 7 -6 15 -10 8 -3 15 -1 15 4 0 6 -7 10 -15 10 -8 0
-15 -2 -15 -4z"/>
<path d="M5200 6351 c0 -8 -7 -11 -20 -8 -11 3 -20 1 -20 -4 0 -5 12 -9 26 -9
17 0 23 -4 18 -12 -5 -10 -4 -10 6 -1 9 8 9 16 1 30 -7 11 -11 13 -11 4z"/>
<path d="M5088 6333 c7 -3 16 -2 19 1 4 3 -2 6 -13 5 -11 0 -14 -3 -6 -6z"/>
<path d="M5000 6321 c0 -6 5 -13 10 -16 6 -3 10 1 10 9 0 9 -4 16 -10 16 -5 0
-10 -4 -10 -9z"/>
<path d="M5225 6130 c-3 -5 -1 -10 4 -10 6 0 11 5 11 10 0 6 -2 10 -4 10 -3 0
-8 -4 -11 -10z"/>
<path d="M5175 6080 c-3 -5 -1 -10 4 -10 6 0 11 5 11 10 0 6 -2 10 -4 10 -3 0
-8 -4 -11 -10z"/>
<path d="M4775 5701 l-28 -30 37 11 c22 7 32 14 25 19 -6 4 -8 12 -5 18 12 19
1 12 -29 -18z"/>
<path d="M4711 5647 c-6 -8 -8 -17 -4 -20 7 -8 33 11 33 24 0 13 -16 11 -29
-4z"/>
<path d="M4498 5457 c-9 -7 -26 -19 -37 -27 -25 -17 -27 -27 -6 -27 8 0 15 4
15 9 0 5 4 7 8 4 5 -3 16 8 26 25 19 32 18 34 -6 16z"/>
<path d="M4895 4930 c-3 -5 -1 -10 4 -10 6 0 11 5 11 10 0 6 -2 10 -4 10 -3 0
-8 -4 -11 -10z"/>
<path d="M4350 4630 c-9 -6 -10 -10 -3 -10 6 0 15 5 18 10 8 12 4 12 -15 0z"/>
<path d="M4121 4394 c0 -11 3 -14 6 -6 3 7 2 16 -1 19 -3 4 -6 -2 -5 -13z"/>
<path d="M3957 4281 c3 -13 -2 -21 -15 -25 -11 -4 -25 -13 -32 -21 -8 -9 2 -8
28 5 32 16 39 24 35 40 -3 11 -9 20 -13 20 -5 0 -6 -9 -3 -19z"/>
<path d="M3087 3670 c-3 -11 -2 -22 2 -24 4 -3 8 6 9 20 2 29 -4 31 -11 4z"/>
<path d="M4967 1954 c6 -15 23 -19 23 -5 0 5 -7 11 -14 14 -10 4 -13 1 -9 -9z"/>
<path d="M5570 7103 c8 -3 18 -11 22 -17 4 -6 10 -7 15 -3 9 10 -16 27 -37 26
-13 -1 -13 -1 0 -6z"/>
<path d="M4768 7076 c-16 -17 -18 -18 -18 -3 0 21 -26 23 -34 2 -3 -9 -12 -12
-22 -8 -11 4 -15 2 -13 -6 3 -7 7 -13 9 -13 3 0 24 -3 48 -8 29 -5 42 -4 42 4
0 6 5 4 10 -4 7 -11 10 -11 10 -2 0 7 4 11 9 8 5 -3 11 7 13 23 4 25 1 29 -16
28 -10 -1 -28 -10 -38 -21z"/>
<path d="M4842 7083 c-6 -3 -10 -9 -6 -14 7 -12 54 -12 54 0 0 11 -30 19 -48
14z"/>
<path d="M5076 7083 c-13 -13 -6 -42 9 -37 16 7 20 30 6 38 -4 3 -11 3 -15 -1z"/>
<path d="M4535 7070 c3 -5 12 -7 20 -3 21 7 19 13 -6 13 -11 0 -18 -4 -14 -10z"/>
<path d="M5136 7064 c-3 -8 -11 -12 -17 -8 -8 4 -9 3 -5 -4 4 -7 15 -12 24
-13 10 0 12 -3 5 -6 -9 -3 -10 -10 -3 -22 6 -13 20 -18 49 -17 47 2 61 11 31
21 -12 4 -19 12 -16 20 3 8 0 16 -7 19 -7 2 -3 5 8 6 17 2 16 3 -5 9 -14 5
-31 3 -39 -3 -11 -8 -13 -8 -7 2 4 6 3 12 -2 12 -6 0 -13 -7 -16 -16z"/>
<path d="M5630 7076 c0 -2 8 -10 18 -17 15 -13 16 -12 3 4 -13 16 -21 21 -21
13z"/>
<path d="M5021 7061 c-11 -7 -10 -11 7 -20 16 -8 21 -7 26 5 3 9 6 18 6 20 0
7 -24 4 -39 -5z"/>
<path d="M4605 7042 c-32 -7 -41 -22 -9 -16 16 3 31 7 33 10 8 7 -3 10 -24 6z"/>
<path d="M4830 7046 c0 -9 30 -14 35 -6 4 6 -3 10 -14 10 -12 0 -21 -2 -21 -4z"/>
<path d="M5315 7040 c-3 -5 -1 -10 4 -10 6 0 11 5 11 10 0 6 -2 10 -4 10 -3 0
-8 -4 -11 -10z"/>
<path d="M5340 7040 c0 -5 7 -10 15 -10 8 0 15 5 15 10 0 6 -7 10 -15 10 -8 0
-15 -4 -15 -10z"/>
<path d="M4510 7030 c0 -5 5 -10 11 -10 5 0 7 5 4 10 -3 6 -8 10 -11 10 -2 0
-4 -4 -4 -10z"/>
<path d="M5360 6988 c0 -19 22 -29 70 -34 33 -4 34 -3 16 11 -11 8 -29 15 -41
15 -12 0 -26 5 -33 12 -9 9 -12 8 -12 -4z"/>
<path d="M4810 6981 c0 -5 9 -7 20 -4 11 3 20 7 20 9 0 2 -9 4 -20 4 -11 0
-20 -4 -20 -9z"/>
<path d="M4850 6946 c4 -4 16 -4 26 2 16 9 14 10 -8 9 -15 -1 -23 -6 -18 -11z"/>
<path d="M4624 6910 c-27 -10 -38 -26 -24 -35 5 -3 10 -15 10 -27 0 -17 -4
-19 -25 -14 -15 4 -25 2 -25 -4 0 -8 -6 -8 -20 0 -16 8 -18 8 -14 -4 7 -18
134 -12 146 7 19 30 -4 38 -34 10 -17 -15 -18 -15 -18 5 0 20 14 27 41 24 8
-1 -1 37 -10 42 -3 2 -16 0 -27 -4z"/>
<path d="M4681 6906 c-10 -12 -8 -13 8 -9 12 3 18 9 15 14 -7 12 -10 11 -23
-5z"/>
<path d="M5000 6905 c0 -8 5 -15 10 -15 6 0 10 7 10 15 0 8 -4 15 -10 15 -5 0
-10 -7 -10 -15z"/>
<path d="M4520 6899 c0 -5 5 -7 10 -4 6 3 10 8 10 11 0 2 -4 4 -10 4 -5 0 -10
-5 -10 -11z"/>
<path d="M4464 6881 c4 -5 -2 -7 -13 -4 -10 3 -22 0 -25 -6 -4 -6 -4 -11 1
-12 4 0 16 -2 26 -4 10 -2 21 3 24 11 3 8 12 13 20 10 8 -3 11 -1 8 4 -3 6
-15 10 -26 10 -11 0 -18 -4 -15 -9z"/>
<path d="M4558 6873 c7 -3 16 -2 19 1 4 3 -2 6 -13 5 -11 0 -14 -3 -6 -6z"/>
<path d="M5280 6870 c0 -5 7 -7 15 -4 8 4 15 8 15 10 0 2 -7 4 -15 4 -8 0 -15
-4 -15 -10z"/>
<path d="M4690 6851 c-14 -26 -13 -31 5 -25 8 4 12 11 9 16 -4 6 0 14 7 19 10
6 10 9 2 9 -7 0 -17 -9 -23 -19z"/>
<path d="M4730 6840 c-13 -8 -12 -10 3 -10 9 0 17 5 17 10 0 12 -1 12 -20 0z"/>
<path d="M4110 6819 c0 -5 5 -7 10 -4 6 3 10 8 10 11 0 2 -4 4 -10 4 -5 0 -10
-5 -10 -11z"/>
<path d="M4447 6810 c-20 -4 -41 -11 -45 -15 -4 -5 1 -5 11 -2 10 4 34 7 53 7
19 0 34 5 34 10 0 6 -3 9 -7 9 -5 -1 -25 -5 -46 -9z"/>
<path d="M4536 6705 c-15 -14 -21 -25 -14 -25 14 0 48 20 34 20 -5 0 -3 7 4
15 19 23 6 18 -24 -10z"/>
<path d="M3180 6500 c-19 -11 -49 -26 -67 -34 -32 -16 -49 -33 -40 -42 2 -3
20 4 38 15 19 11 55 30 82 42 26 12 47 25 47 30 0 14 -22 10 -60 -11z"/>
<path d="M2986 6388 c-38 -23 -64 -44 -58 -46 11 -3 117 61 127 78 9 14 7 14
-69 -32z"/>
<path d="M2860 6180 c-13 -8 -12 -10 3 -10 10 0 15 -4 12 -10 -3 -5 -1 -10 4
-10 13 0 14 10 3 27 -5 8 -13 9 -22 3z"/>
<path d="M2833 6135 c0 -8 4 -12 9 -9 5 3 6 10 3 15 -9 13 -12 11 -12 -6z"/>
<path d="M2550 5412 c0 -13 30 -52 41 -52 17 0 9 39 -10 50 -23 12 -31 13 -31
2z"/>
<path d="M6216 5213 c-6 -14 -5 -15 5 -6 7 7 10 15 7 18 -3 3 -9 -2 -12 -12z"/>
<path d="M6183 5162 c-27 -36 -47 -76 -36 -69 15 9 66 87 61 92 -2 3 -13 -8
-25 -23z"/>
<path d="M5950 5095 c-7 -8 -16 -12 -21 -9 -5 3 -6 -2 -3 -11 5 -13 9 -12 25
6 11 12 19 24 19 26 0 7 -8 2 -20 -12z"/>
<path d="M5968 5006 c-10 -7 -18 -19 -18 -27 1 -10 4 -9 14 3 7 10 16 15 19
11 4 -3 7 1 7 10 0 20 0 20 -22 3z"/>
<path d="M5668 4983 c7 -3 16 -2 19 1 4 3 -2 6 -13 5 -11 0 -14 -3 -6 -6z"/>
<path d="M5853 4975 c0 -8 4 -12 9 -9 4 3 8 9 8 15 0 5 -4 9 -8 9 -5 0 -9 -7
-9 -15z"/>
<path d="M5798 4922 c-16 -15 -28 -34 -28 -42 0 -7 16 3 35 24 19 21 35 40 35
42 0 10 -18 0 -42 -24z"/>
<path d="M5890 4925 c-19 -22 -7 -41 13 -21 18 19 22 36 8 36 -5 0 -14 -7 -21
-15z"/>
<path d="M2680 4875 c-7 -9 -10 -27 -6 -45 3 -17 2 -30 -2 -30 -13 0 -32 -143
-21 -154 5 -6 9 -8 9 -5 0 2 9 58 20 123 11 65 19 121 17 123 -2 2 -10 -3 -17
-12z"/>
<path d="M5846 4865 c-4 -14 -11 -23 -16 -20 -6 3 -10 0 -10 -8 0 -8 -10 -22
-22 -31 -17 -13 -18 -14 -3 -6 35 17 66 48 70 69 6 30 -12 26 -19 -4z"/>
<path d="M5612 4810 l-22 -30 25 12 c14 6 23 13 20 16 -3 3 0 11 6 19 6 7 7
13 2 13 -5 0 -19 -13 -31 -30z"/>
<path d="M5556 4815 c-9 -26 -7 -32 5 -12 6 10 9 21 6 23 -2 3 -7 -2 -11 -11z"/>
<path d="M5699 4818 c-16 -13 -53 -68 -46 -68 2 0 20 18 41 40 35 38 38 55 5
28z"/>
<path d="M5504 4757 c-34 -36 -80 -69 -89 -65 -11 5 -26 -32 -19 -44 5 -7 2
-9 -9 -5 -8 3 -20 0 -27 -7 -8 -10 -7 -15 5 -19 9 -4 23 4 36 22 12 16 30 32
40 34 11 3 19 11 19 19 0 18 43 45 48 30 2 -6 10 -8 18 -5 20 8 17 24 -3 16
-15 -5 -16 -4 -5 8 10 11 17 11 31 2 29 -18 36 12 7 30 -21 14 -24 13 -52 -16z"/>
<path d="M5702 4738 c-7 -7 -12 -18 -12 -25 0 -7 -7 -13 -15 -13 -8 0 -19 -8
-24 -19 -9 -16 -7 -17 14 -14 13 3 26 14 28 25 3 11 10 18 15 15 4 -4 16 3 25
14 19 21 9 26 -12 7 -11 -11 -13 -10 -8 5 7 20 5 21 -11 5z"/>
<path d="M5596 4719 c-26 -26 -2 -25 26 1 15 14 17 20 7 19 -8 0 -23 -9 -33
-20z"/>
<path d="M5482 4689 c-17 -27 -15 -31 11 -17 12 7 25 11 30 10 4 -1 7 2 7 7 0
18 -37 18 -48 0z"/>
<path d="M5555 4670 c-3 -6 1 -7 9 -4 18 7 21 14 7 14 -6 0 -13 -4 -16 -10z"/>
<path d="M5411 4624 c-12 -15 -21 -23 -21 -18 0 5 -7 1 -15 -10 -7 -10 -18
-15 -24 -11 -7 3 -8 0 -5 -9 7 -18 34 -30 34 -15 0 6 7 9 15 5 11 -4 15 1 15
16 0 12 12 32 28 45 20 17 23 22 10 23 -9 0 -26 -12 -37 -26z"/>
<path d="M2630 4590 c0 -5 5 -10 11 -10 5 0 7 5 4 10 -3 6 -8 10 -11 10 -2 0
-4 -4 -4 -10z"/>
<path d="M5283 4552 c1 -14 5 -18 11 -12 7 7 6 14 -1 21 -9 9 -12 7 -10 -9z"/>
<path d="M5321 4541 c-7 -5 -11 -15 -9 -22 3 -10 8 -7 17 9 13 24 12 26 -8 13z"/>
<path d="M5397 4533 c-4 -3 -7 -11 -7 -17 0 -6 5 -5 12 2 6 6 9 14 7 17 -3 3
-9 2 -12 -2z"/>
<path d="M5212 4484 c-7 -8 -8 -14 -3 -14 10 0 25 19 20 25 -2 1 -10 -3 -17
-11z"/>
<path d="M4902 4464 c-17 -12 -22 -12 -23 -2 0 7 -5 1 -11 -14 -5 -16 -13 -28
-17 -28 -11 0 -51 -39 -51 -50 0 -18 29 -10 40 11 7 11 14 18 17 16 3 -3 18
10 35 29 17 19 40 34 52 34 17 0 18 2 6 10 -20 13 -22 13 -48 -6z"/>
<path d="M5233 4466 c-7 -8 -17 -16 -24 -18 -7 -2 -10 -9 -8 -15 2 -5 18 3 34
18 17 16 26 29 20 29 -5 -1 -15 -7 -22 -14z"/>
<path d="M4724 4350 c-10 -11 -31 -30 -46 -42 -31 -27 -48 -81 -22 -71 9 3 14
13 11 24 -3 13 -1 17 6 12 21 -13 35 -11 56 8 11 10 25 19 30 19 19 0 34 40
20 56 -16 19 -32 18 -55 -6z"/>
<path d="M5024 4336 c-30 -31 -36 -53 -16 -59 10 -2 23 2 30 10 8 8 9 13 2 13
-6 0 -8 5 -5 10 4 6 14 9 22 8 9 -2 18 4 20 12 4 13 3 13 -6 0 -9 -13 -11 -13
-11 2 0 26 -13 27 -36 4z"/>
<path d="M4850 4313 c0 -9 -3 -13 -6 -10 -4 4 -19 -2 -33 -12 -14 -10 -32 -16
-38 -14 -12 4 -18 -9 -14 -30 1 -5 -3 -6 -8 -3 -15 10 -61 -12 -61 -29 0 -9 5
-13 10 -10 6 3 10 1 10 -4 0 -17 42 -8 68 14 13 11 30 32 38 47 8 15 22 29 32
32 18 6 27 36 10 36 -4 0 -8 -7 -8 -17z"/>
<path d="M5254 4305 c-10 -8 -14 -14 -9 -14 6 0 19 6 29 14 11 8 15 15 10 15
-6 0 -19 -7 -30 -15z"/>
<path d="M4928 4253 c-10 -2 -18 -8 -18 -13 0 -5 -16 -20 -35 -33 -19 -13 -32
-27 -28 -30 3 -4 15 0 25 10 10 9 21 13 25 10 3 -4 1 -7 -5 -7 -7 0 -12 -4
-12 -10 0 -20 30 3 31 24 0 11 3 15 6 9 3 -10 10 -10 24 -2 11 5 17 14 14 20
-4 5 3 9 14 9 12 0 21 5 21 10 0 10 -30 12 -62 3z"/>
<path d="M4644 4175 c-10 -8 -15 -15 -10 -15 5 0 1 -9 -9 -20 -10 -11 -15 -20
-11 -20 10 0 28 20 44 48 14 26 12 27 -14 7z"/>
<path d="M4800 4140 c-14 -11 -21 -20 -16 -20 5 0 3 -6 -3 -14 -10 -12 -8 -13
8 -9 11 3 26 12 33 21 10 12 10 14 1 8 -16 -9 -17 6 -1 22 18 18 6 14 -22 -8z"/>
<path d="M4841 4144 c0 -11 3 -14 6 -6 3 7 2 16 -1 19 -3 4 -6 -2 -5 -13z"/>
<path d="M4575 4120 c3 -5 8 -10 11 -10 2 0 4 5 4 10 0 6 -5 10 -11 10 -5 0
-7 -4 -4 -10z"/>
<path d="M4741 4101 c-8 -5 -9 -11 -3 -15 5 -3 12 1 16 9 6 17 6 18 -13 6z"/>
<path d="M4525 4080 c-4 -6 -10 -8 -15 -5 -14 8 -32 -23 -25 -44 11 -34 54 -5
62 42 3 18 -12 23 -22 7z"/>
<path d="M4560 4071 c0 -25 6 -27 13 -6 4 8 2 17 -3 20 -6 4 -10 -3 -10 -14z"/>
<path d="M4713 4073 c-7 -3 -13 -8 -13 -13 0 -10 24 -7 28 4 5 11 -1 14 -15 9z"/>
<path d="M4674 4023 c3 -21 11 -23 23 -5 8 14 7 18 -7 18 -10 0 -17 -6 -16
-13z"/>
<path d="M4456 4015 c-3 -8 -1 -15 4 -15 13 0 22 18 11 24 -5 3 -11 -1 -15 -9z"/>
<path d="M4634 4009 c-4 -7 -3 -9 4 -5 5 3 13 0 15 -6 4 -9 6 -10 6 -1 1 17
-16 25 -25 12z"/>
<path d="M4730 3980 c0 -5 -7 -10 -15 -10 -8 0 -15 -4 -15 -9 0 -5 9 -7 20 -4
17 5 30 33 15 33 -3 0 -5 -4 -5 -10z"/>
<path d="M4662 3938 c-7 -7 -12 -19 -12 -27 1 -13 3 -13 11 2 6 9 14 15 20 12
5 -3 6 1 3 9 -7 19 -7 19 -22 4z"/>
<path d="M4793 3943 c-14 -5 -18 -33 -5 -33 5 0 17 9 27 20 18 20 8 26 -22 13z"/>
<path d="M4637 3823 c5 -12 3 -14 -7 -8 -8 5 -11 3 -9 -4 7 -20 21 -18 37 7
13 20 13 22 -6 22 -16 0 -20 -4 -15 -17z"/>
<path d="M4639 3295 c5 -11 26 -38 45 -60 20 -22 36 -43 36 -47 0 -5 4 -8 9
-8 10 0 -1 24 -29 68 -8 12 -20 22 -26 22 -6 0 -19 10 -28 23 -13 17 -14 18
-7 2z"/>
<path d="M3160 3049 c0 -5 5 -7 10 -4 6 3 10 8 10 11 0 2 -4 4 -10 4 -5 0 -10
-5 -10 -11z"/>
<path d="M3150 3016 c0 -8 5 -18 10 -21 6 -3 10 3 10 14 0 12 -4 21 -10 21 -5
0 -10 -6 -10 -14z"/>
<path d="M2897 2983 c-4 -3 -7 -11 -7 -17 0 -6 5 -5 12 2 6 6 9 14 7 17 -3 3
-9 2 -12 -2z"/>
<path d="M3146 2957 c3 -10 9 -15 12 -12 3 3 0 11 -7 18 -10 9 -11 8 -5 -6z"/>
<path d="M2879 2933 c-13 -16 -12 -17 4 -4 16 13 21 21 13 21 -2 0 -10 -8 -17
-17z"/>
<path d="M3163 2921 c-6 -18 -7 -31 -2 -31 12 0 22 24 17 45 -2 12 -7 7 -15
-14z"/>
<path d="M2893 2832 c0 -12 5 -22 9 -22 11 0 10 12 -2 30 -7 12 -9 10 -7 -8z"/>
<path d="M4960 2807 c0 -10 7 -20 15 -23 8 -4 15 -12 15 -19 0 -7 7 -18 15
-25 28 -23 17 15 -15 51 -23 26 -30 30 -30 16z"/>
<path d="M2831 2714 c0 -11 3 -14 6 -6 3 7 2 16 -1 19 -3 4 -6 -2 -5 -13z"/>
<path d="M2871 2704 c0 -11 3 -14 6 -6 3 7 2 16 -1 19 -3 4 -6 -2 -5 -13z"/>
<path d="M4760 2692 c0 -12 19 -26 26 -19 2 2 -2 10 -11 17 -9 8 -15 8 -15 2z"/>
<path d="M2860 2664 c0 -8 5 -12 10 -9 6 4 8 11 5 16 -9 14 -15 11 -15 -7z"/>
<path d="M5080 2668 c0 -9 5 -20 10 -23 13 -8 13 5 0 25 -8 13 -10 13 -10 -2z"/>
<path d="M4821 2623 c7 -12 15 -20 18 -17 3 2 -3 12 -13 22 -17 16 -18 16 -5
-5z"/>
<path d="M4820 2560 c0 -11 21 -40 46 -65 31 -29 44 -50 40 -60 -3 -9 -2 -13
4 -10 5 3 18 -4 29 -16 l21 -22 -11 34 c-6 19 -12 45 -14 58 -4 24 -25 54 -25
35 0 -5 5 -15 12 -22 7 -7 9 -12 5 -12 -9 0 -77 72 -77 81 0 4 -7 9 -15 13
-10 4 -15 -1 -15 -14z"/>
<path d="M2952 2475 c-10 -22 -9 -25 8 -25 21 0 26 16 12 38 -6 9 -12 6 -20
-13z"/>
<path d="M5102 2482 c21 -31 77 -92 83 -92 11 0 -18 43 -51 76 -36 37 -53 45
-32 16z"/>
<path d="M2507 2463 c7 -2 9 -11 6 -19 -8 -20 4 -17 16 4 8 15 5 18 -12 19
-12 0 -17 -1 -10 -4z"/>
<path d="M2836 2443 c-4 -9 -2 -21 4 -27 7 -7 10 -2 10 17 0 31 -5 34 -14 10z"/>
<path d="M2953 2428 c-13 -17 -27 -51 -24 -62 1 -4 -2 -13 -7 -20 -13 -16 -24
-66 -14 -66 4 0 9 12 10 28 1 15 9 32 17 38 8 6 12 14 8 18 -4 3 2 13 13 21
10 8 15 15 9 15 -5 0 -5 4 2 8 7 4 9 13 4 20 -6 10 -10 10 -18 0z"/>
<path d="M4845 2428 c-7 -17 58 -118 76 -118 5 0 8 -6 7 -12 -2 -7 5 -12 15
-10 9 2 17 -3 17 -11 0 -30 25 -68 42 -63 12 3 23 -7 35 -35 10 -21 23 -37 29
-35 6 3 17 -1 24 -7 10 -10 11 -6 6 18 -9 37 -35 67 -53 61 -12 -5 -41 34 -32
44 2 3 -6 9 -19 15 -12 5 -32 30 -43 55 -23 49 -57 90 -76 90 -6 0 -13 6 -16
13 -3 8 -7 7 -12 -5z m215 -233 c0 -8 -2 -15 -4 -15 -2 0 -6 7 -10 15 -3 8 -1
15 4 15 6 0 10 -7 10 -15z"/>
<path d="M2671 2404 c0 -11 3 -14 6 -6 3 7 2 16 -1 19 -3 4 -6 -2 -5 -13z"/>
<path d="M2661 2364 c0 -11 3 -14 6 -6 3 7 2 16 -1 19 -3 4 -6 -2 -5 -13z"/>
<path d="M4970 2370 c0 -4 9 -10 20 -13 11 -3 20 -2 20 3 0 4 -9 10 -20 13
-11 3 -20 2 -20 -3z"/>
<path d="M2856 2354 c-4 -9 -4 -19 -1 -22 2 -3 7 3 11 12 4 9 4 19 1 22 -2 3
-7 -3 -11 -12z"/>
<path d="M2677 2343 c-4 -3 -7 -17 -7 -29 0 -13 -4 -26 -10 -29 -5 -3 -10 -21
-9 -38 0 -31 1 -30 20 17 11 27 17 56 14 64 -3 10 0 12 10 8 8 -3 15 -1 15 4
0 11 -23 13 -33 3z"/>
<path d="M2768 2334 c-5 -4 -8 -16 -8 -28 0 -14 3 -17 11 -9 6 6 9 19 7 28 -1
9 -6 13 -10 9z"/>
<path d="M5025 2330 c-3 -5 -1 -10 4 -10 6 0 11 5 11 10 0 6 -2 10 -4 10 -3 0
-8 -4 -11 -10z"/>
<path d="M5114 2231 c4 -5 3 -11 -1 -14 -5 -2 -2 -2 5 -1 7 2 12 -4 10 -14 -2
-9 3 -16 10 -14 7 1 15 -5 18 -13 4 -8 10 -15 15 -15 11 0 -5 32 -29 61 -17
19 -38 27 -28 10z"/>
<path d="M2621 2118 c-15 -43 -8 -45 12 -3 9 19 13 35 8 35 -5 0 -14 -14 -20
-32z"/>
<path d="M5141 2065 c-1 -20 46 -51 58 -39 6 6 -24 26 -36 24 -4 -1 -10 7 -14
17 -7 17 -8 16 -8 -2z"/>
<path d="M5220 1991 c0 -6 4 -13 10 -16 6 -3 7 1 4 9 -7 18 -14 21 -14 7z"/>
<path d="M2349 1973 c-2 -18 -8 -50 -14 -73 l-6 -25 17 23 c22 30 32 28 28 -5
l-4 -28 10 29 c11 36 2 86 -16 86 -8 0 -14 -3 -15 -7z m21 -28 c0 -8 -2 -15
-4 -15 -2 0 -6 7 -10 15 -3 8 -1 15 4 15 6 0 10 -7 10 -15z"/>
<path d="M5246 1942 c-3 -6 -1 -14 5 -17 15 -10 25 3 12 16 -7 7 -13 7 -17 1z"/>
<path d="M5275 1910 c-4 -6 -4 -14 -1 -17 3 -4 6 0 6 8 1 10 5 8 15 -5 8 -11
15 -15 15 -9 0 18 -27 36 -35 23z"/>
<path d="M5167 1903 c-18 -18 44 -90 66 -76 6 4 3 11 -8 20 -11 7 -13 13 -7
13 20 0 -4 37 -27 43 -11 3 -22 3 -24 0z"/>
<path d="M5400 1895 c0 -3 18 -23 40 -45 45 -45 54 -35 14 17 -21 28 -54 45
-54 28z"/>
<path d="M5319 1875 c-1 -8 -2 -20 -3 -27 -1 -6 7 -12 17 -14 23 -3 36 -14 17
-14 -10 0 -10 -3 0 -15 7 -8 16 -12 21 -9 5 3 8 2 7 -3 -5 -15 36 -58 70 -75
25 -13 32 -13 32 -3 0 19 -27 39 -35 25 -3 -6 -11 -8 -16 -4 -5 3 -6 10 -3 16
4 7 2 8 -5 4 -8 -5 -10 0 -7 18 3 15 -1 32 -9 40 -8 7 -11 16 -8 20 4 3 -1 6
-9 6 -8 0 -27 11 -42 25 -19 17 -26 20 -27 10z"/>
<path d="M2065 1870 c-3 -5 1 -10 10 -10 9 0 13 5 10 10 -3 6 -8 10 -10 10 -2
0 -7 -4 -10 -10z"/>
<path d="M2316 1858 c-3 -7 -7 -29 -10 -48 -5 -33 -5 -34 9 -16 8 11 15 32 15
48 0 29 -8 37 -14 16z"/>
<path d="M2052 1829 c-7 -12 -11 -23 -8 -26 3 -3 8 2 12 11 3 9 10 13 15 10 5
-3 9 2 9 10 0 22 -13 20 -28 -5z"/>
<path d="M2547 1843 c-4 -3 -7 -13 -7 -22 1 -13 3 -13 11 2 11 19 8 33 -4 20z"/>
<path d="M2220 1810 c0 -13 18 -22 24 -11 3 5 -1 11 -9 15 -8 3 -15 1 -15 -4z"/>
<path d="M2264 1772 c-2 -37 -2 -37 8 -9 6 16 6 33 2 37 -5 5 -10 -7 -10 -28z"/>
<path d="M5195 1771 c3 -5 1 -12 -5 -16 -5 -3 -10 -12 -10 -18 0 -9 2 -9 8 0
9 14 22 6 45 -27 17 -24 17 -24 17 -2 0 12 -4 22 -10 22 -5 0 -10 7 -10 16 0
8 -4 12 -10 9 -6 -3 -7 1 -4 9 4 11 0 16 -11 16 -9 0 -14 -4 -10 -9z"/>
<path d="M2030 1759 c0 -5 5 -7 10 -4 6 3 10 8 10 11 0 2 -4 4 -10 4 -5 0 -10
-5 -10 -11z"/>
<path d="M2290 1749 c0 -5 5 -7 10 -4 6 3 10 8 10 11 0 2 -4 4 -10 4 -5 0 -10
-5 -10 -11z"/>
<path d="M2155 1710 c-3 -5 -1 -10 4 -10 6 0 11 5 11 10 0 6 -2 10 -4 10 -3 0
-8 -4 -11 -10z"/>
<path d="M2510 1713 c0 -5 5 -15 10 -23 7 -12 9 -10 7 8 -1 19 -17 33 -17 15z"/>
<path d="M5607 1679 c7 -7 15 -10 18 -7 3 3 -2 9 -12 12 -14 6 -15 5 -6 -5z"/>
<path d="M5507 1673 c-12 -11 -8 -23 7 -23 14 0 31 -27 27 -43 -1 -5 2 -6 7
-3 4 2 17 -15 28 -40 22 -51 49 -59 57 -16 6 31 -1 42 -31 45 -11 0 -20 4 -19
7 3 14 -16 50 -28 50 -7 0 -15 7 -19 15 -6 16 -18 19 -29 8z"/>
<path d="M5630 1652 c0 -15 78 -87 86 -79 5 5 -70 87 -80 87 -3 0 -6 -3 -6 -8z"/>
<path d="M2387 1629 c-3 -12 -10 -18 -16 -14 -12 7 -15 -17 -4 -28 6 -7 43 40
43 56 0 16 -18 6 -23 -14z"/>
<path d="M5450 1616 c0 -2 8 -10 18 -17 15 -13 16 -12 3 4 -13 16 -21 21 -21
13z"/>
<path d="M2360 1534 c-11 -27 -13 -51 -5 -42 8 8 25 68 19 68 -2 0 -9 -12 -14
-26z"/>
<path d="M5725 1551 c-3 -6 -1 -11 5 -11 6 0 9 -4 6 -8 -3 -5 14 -27 37 -49
23 -23 52 -51 64 -64 31 -34 63 -60 63 -53 0 4 7 1 15 -6 9 -7 18 -10 21 -8 3
3 -5 14 -18 25 -57 48 -103 104 -90 112 9 5 6 13 -12 30 -16 15 -26 19 -31 11
-5 -8 -14 -5 -30 10 -15 14 -25 18 -30 11z m95 -51 c0 -5 -4 -10 -10 -10 -5 0
-10 5 -10 10 0 6 5 10 10 10 6 0 10 -4 10 -10z"/>
<path d="M2045 1540 c-3 -5 -1 -10 4 -10 6 0 11 5 11 10 0 6 -2 10 -4 10 -3 0
-8 -4 -11 -10z"/>
<path d="M5940 1331 c0 -5 7 -12 16 -15 14 -5 15 -4 4 9 -14 17 -20 19 -20 6z"/>
<path d="M5910 1145 c0 -8 7 -15 15 -15 8 0 15 -5 15 -12 0 -6 3 -9 6 -6 8 8
-14 48 -26 48 -6 0 -10 -7 -10 -15z"/>
<path d="M5955 700 c3 -5 8 -10 11 -10 2 0 4 5 4 10 0 6 -5 10 -11 10 -5 0 -7
-4 -4 -10z"/>
<path d="M5770 631 c0 -5 5 -13 10 -16 6 -3 10 -2 10 4 0 5 -4 13 -10 16 -5 3
-10 2 -10 -4z"/>
</g>
</svg>
